<svg height="400pt" width="400pt" xmlns="http://www.w3.org/2000/svg" xmlns:xlink="http://www.w3.org/1999/xlink"><defs><linearGradient id="a"><stop offset="0" stop-color="#de9500"/><stop offset="1" stop-color="#ffff0f"/></linearGradient><linearGradient gradientUnits="objectBoundingBox" id="b" spreadMethod="reflect" x1=".615" x2=".25" xlink:href="#a" y1=".539" y2=".32"/></defs><g fill-rule="evenodd"><path d="M66.713 11.43c-11.64 149.065 35.262 212.687-1.695 451.942 0 0 333.233 3.392 332.385 3.392 43.456-250-25.204-331.333 2.657-396.827-53.798-.735-67.099-59.355-67.099-59.355l-266.248.848z" fill="#fff" stroke="#000" stroke-width="10" stroke-linejoin="round"/><path d="M332.962 11.43l-.85 59.355h68.682c3.392-5.088-64.441-57.659-67.832-59.355z" fill="#eeebff" stroke="#000" stroke-width="10" stroke-linejoin="round"/><path d="M99.879 380.676L76.014 482.322l99.727-70.71s-8.687-60.104-75.862-30.936z" transform="matrix(.74118 0 0 .71897 165.015 93.073)" fill="#cca89d" stroke="#000" stroke-width="13.699" stroke-linejoin="round"/><path d="M100.763 380.676L325.269 62.478s21.213-26.517 45.078-11.49c7.072 1.767 5.304 0 19.446 10.606 3.535 2.651 5.303 23.865 5.303 23.865S174.125 411.612 174.125 412.496c0 .883-3.536-19.446-22.981-30.053-17.678-10.606-49.497-.883-50.381-1.767z" transform="matrix(.74118 0 0 .71897 165.015 93.073)" fill="#c96400" stroke="#000" stroke-width="13.699" stroke-linejoin="round"/><path d="M75.13 483.206l7.955-31.82c0-.884 10.607-.884 14.142 3.536 3.536.884 4.42 7.955 4.42 7.955L75.13 483.206z" transform="matrix(.74118 0 0 .71897 165.015 93.073)" stroke="#000" stroke-width="17.123" stroke-linejoin="round"/><path d="M315.547 74.852l43.31-52.15s18.561-19.445 37.123-9.722c18.561 9.723 9.722 4.42 18.562 10.607 7.954 12.374-2.652 35.355-3.536 35.355-.884 0-36.239 58.337-36.239 58.337s8.838-10.607-6.188-18.562c-16.793-22.097-53.916-23.865-53.032-23.865z" transform="matrix(.74118 0 0 .71897 165.015 93.073)" fill="#fc64e3" stroke="#000" stroke-width="13.699" stroke-linejoin="round"/><path d="M305.824 87.226c-.884 0 36.239-47.73 36.239-47.73s15.026-1.767 28.284 1.768c15.027 6.188 8.839 1.768 19.446 9.723 9.722 7.955 11.49 26.517 11.49 26.517l-28.284 44.194s.884-8.839-7.955-18.561c-14.142-11.491-28.285-13.259-37.123-16.795-12.375-1.767-22.981 1.768-22.097.884z" transform="matrix(.74118 0 0 .71897 165.015 93.073)" fill="url(#b)" stroke="#000" stroke-width="13.699" stroke-linejoin="round"/><path d="M221.993 438.629c0-.899 5.096-19.772 6.485-19.772 1.39 0 6.022.899 6.022 2.247-7.875 4.494-11.117 16.177-12.507 17.525z" fill="#fff"/><path d="M255.607 355.763c10.684-16.46 137.152-188.49 140.923-190.928 52.79-21.337-103.842 139.718-140.923 190.928z" fill="#fff" fill-opacity=".504"/><path d="M234.507 414.152c0-1.829 7.542-34.139 11.312-44.503 1.257 0 21.127-3.026 28.04 7.949-24.51 3.657-38.095 31.677-39.352 36.554z" fill="#fff" fill-opacity=".502"/><path d="M457.25 105.678s14.455 3.048 14.455 7.315c3.77 12.193-3.143 18.899-7.542 26.215 1.257-11.583 3.771-17.07-6.913-33.53z" fill-opacity=".25"/></g></svg>