<?xml version="1.0" encoding="UTF-8"?><svg enable-background="new 0 0 27.442 27.442" version="1.1" viewBox="0 0 27.442 27.442" xml:space="preserve" xmlns="http://www.w3.org/2000/svg"><path d="m19.494 0h-11.546c-1.105 0-1.997 0.896-1.997 1.999v23.446c0 1.102 0.892 1.997 1.997 1.997h11.546c1.103 0 1.997-0.895 1.997-1.997v-23.446c0-1.103-0.894-1.999-1.997-1.999zm-8.622 1.214h5.7c0.144 0 0.261 0.215 0.261 0.481s-0.117 0.482-0.261 0.482h-5.7c-0.145 0-0.26-0.216-0.26-0.482s0.115-0.481 0.26-0.481zm2.85 24.255c-0.703 0-1.275-0.572-1.275-1.276s0.572-1.274 1.275-1.274c0.701 0 1.273 0.57 1.273 1.274s-0.572 1.276-1.273 1.276zm6.273-4.369h-12.547v-17.727h12.547v17.727z"/></svg>
