<svg id="Layer_1" xmlns="http://www.w3.org/2000/svg" viewBox="0 0 189.6 195.4"><style>.st0{fill:#6d6e70}</style><path class="st0" d="M107 154.5c-.4 0-.7-.1-1.1-.2l-22.7-10.8c-1-.5-1.6-1.6-1.4-2.6.1-.3 1.3-8.2 5.1-16 .6-1.2 2.1-1.8 3.3-1.1 1.2.6 1.8 2.1 1.1 3.3-2.4 5-3.8 10.1-4.3 12.8l19.9 9.5 20.4-9.4c-1.9-5.5-7.4-20.2-14.6-26.3-1.1-.9-1.2-2.5-.3-3.5.9-1.1 2.5-1.2 3.5-.3 10 8.4 16.6 29.8 16.9 30.7.4 1.2-.2 2.5-1.3 3L108 154.2c-.3.2-.6.3-1 .3z"/><path class="st0" d="M107 117.8c-7.5 0-13.4-8.2-15.6-15.8-.4-1.3.4-2.7 1.7-3.1 1.3-.4 2.7.4 3.1 1.7 1.8 6 6.3 12.2 10.8 12.2 5.6 0 11.2-9.3 11.6-16.5.1-1.4 1.3-2.4 2.6-2.4 1.4.1 2.4 1.2 2.4 2.6-.4 8.5-7.3 21.3-16.6 21.3z"/><path class="st0" d="M90.9 104.2c-1.1 0-2-.7-2.4-1.7-.6-1.7-1.2-4.5-1.2-7.5 0-11 9-20 20-20 10.5 0 19.2 8.2 20 18.6 0 .4-.1.9-.3 1.3-2.2 4.3-10.2 5.4-12.7 5.7-.8.1-1.6-.2-2.2-.9-.4-.4-.6-1-.6-1.5-6.5 3-15.6 5.8-20.7 6.1.2-.1.2-.1.1-.1zm16.5-24.3c-8.3 0-15 6.7-15 15 0 1.5.2 2.9.4 4 6.1-.9 16.2-4.5 20.6-7.5.8-.5 1.8-.6 2.6-.1s1.3 1.4 1.2 2.3c0 .4-.1.9-.1 1.2 2.3-.5 4.3-1.3 5.1-2-.8-7.2-7.2-12.9-14.8-12.9z"/><g><path class="st0" d="M159.5 166.9h-129c-6.8 0-12.7-5.5-13.1-12.3l-6.6-111c-.2-3.3.9-6.5 3.2-8.9 2.3-2.4 5.4-3.7 8.7-3.7h39.5c6.4 0 14 4.4 17.2 9.9l4.7 8.2c2.3 4 8.2 7.4 12.8 7.4h72.7c3.4 0 6.4 1.3 8.6 3.7 2.2 2.4 3.2 5.6 2.9 9l-8.1 85.6c-.7 6.6-6.8 12.1-13.5 12.1zM22.6 35.9c-2 0-3.8.8-5.1 2.1s-2 3.2-1.8 5.2l6.6 111c.2 4.1 4 7.6 8.1 7.6h129c4.2 0 8.1-3.5 8.5-7.7l8.1-85.6c.2-1.9-.4-3.8-1.6-5.1-1.2-1.4-3-2.1-4.9-2.1H96.8c-6.4 0-14-4.4-17.2-9.9L75 43.3c-2.3-4-8.2-7.4-12.8-7.4H22.6z"/><path class="st0" d="M44.6 147.9h-.4c-1.4-.2-2.3-1.5-2.1-2.8.1-.5 7.5-49.7 9.5-69.4.9-9.2 3.5-15.2 7.6-17.9 2.8-1.8 5.4-1.6 6.5-1.3h48.5c1.4 0 2.5 1.1 2.5 2.5s-1.1 2.5-2.5 2.5H65.5c-.3 0-.5 0-.8-.1 0 0-1.3-.3-2.8.7-1.6 1.1-4.3 4.3-5.3 14.1-2 19.8-9.5 69.1-9.5 69.6-.2 1.2-1.2 2.1-2.5 2.1z"/></g></svg>