<?xml version="1.0" encoding="utf-8"?>
<svg id="master-artboard" viewBox="0 0 31 389" version="1.1" xmlns="http://www.w3.org/2000/svg" x="0px" y="0px" style="enable-background:new 0 0 1400 980;" width="31px" height="389px" xmlns:xlink="http://www.w3.org/1999/xlink"><defs><path d="M21.18 316.97v-1.02-.52c0-.1.06-.06.17-.06h1.34c.13 0 .28.02.4-.06.18-.12.16-.31.16-.49 0-.29.13-.95-.16-1.13-.26-.17-.82-.06-1.11-.06-.14 0-.8.07-.8-.07v-1.22c0-.34 0-.67-.45-.67h-.64c-.16 0-.37-.03-.53.03-.35.14-.23.74-.23 1.01 0 .08.02.92 0 .92h-1.18c-.33 0-.87-.09-.87.36v1.03c0 .45.61.35.91.35.1 0 1.14-.01 1.14.01v1.28c0 .13-.02.32.04.45.1.23.35.22.56.22.33 0 1.25.16 1.25-.36" id="a"/><path d="M0 360.05v-30h30v30H0z" id="b"/><path d="M22.33 346.85v-1.02-.51c0-.1.06-.06.17-.06h1.33c.13 0 .29.02.41-.06.18-.12.15-.31.15-.49 0-.29.14-.95-.15-1.13-.27-.17-.83-.06-1.12-.06-.13 0-.79.07-.79-.07v-1.22c0-.33 0-.67-.46-.67h-.64c-.15 0-.37-.02-.52.04-.35.13-.23.73-.23 1.01 0 .07.01.91 0 .91h-1.19c-.33 0-.87-.09-.87.36v1.03c0 .44.62.35.92.35.09 0 1.14-.01 1.14.01v1.27c0 .13-.03.33.03.46.1.23.35.21.57.21.32 0 1.25.16 1.25-.36" id="c"/><path d="M19.59 252c.25.28.44.61.57.96.11.28.19.55.24.84.04.25.09.5.09.76 0 1.75 0 3.51.01 5.26 0 .09-.03.12-.11.12-.81 0-1.61-.01-2.41 0-.12 0-.13-.05-.13-.14v-4.6c0-.29-.02-.58-.11-.84-.13-.45-.41-.78-.87-.95-.38-.14-.77-.16-1.17-.06-.43.11-.74.39-.95.78-.13.22-.17.44-.2.69-.01.19-.02.37-.02.56v4.41c0 .12-.04.15-.15.15-.78-.01-1.56-.01-2.34 0-.14 0-.15-.05-.15-.17v-8.13c0-.32 0-.32.32-.32h2.19c.1 0 .13.03.13.13-.01.32-.01.64-.01 1 .18-.22.3-.42.48-.59.32-.33.68-.56 1.11-.7.48-.17.98-.19 1.46-.14.79.07 1.48.38 2.02.98z" id="d"/><path d="M10.24 251.54c-.01 2.75-.01 5.5 0 8.24 0 .12-.03.17-.16.16H7.71c-.11 0-.14-.03-.14-.14v-4.13-4.13c0-.11.03-.15.15-.15h2.37c.1.03.15.08.15.15z" id="e"/><path d="M8.87 247.01c.85-.03 1.35.61 1.36 1.35 0 .76-.55 1.34-1.38 1.34-.8 0-1.35-.56-1.35-1.35-.01-.75.54-1.37 1.37-1.34z" id="f"/><path d="M0 300.3v-30h30v30H0z" id="g"/><path d="M20.52 282.82c.11.28.19.55.24.84.04.25.09.5.09.76 0 1.75 0 3.51.01 5.26 0 .09-.03.12-.11.12-.81 0-1.61-.01-2.41 0-.12 0-.13-.05-.13-.14v-4.6c0-.29-.02-.58-.11-.84-.13-.45-.41-.78-.87-.95-.38-.14-.77-.16-1.17-.06-.43.11-.74.39-.95.78-.13.22-.17.44-.2.69-.01.19-.02.37-.02.56v4.41c0 .12-.04.15-.15.15-.78-.01-1.56-.01-2.34 0-.14 0-.15-.05-.15-.17v-8.13c0-.32 0-.32.32-.32h2.19c.1 0 .13.03.13.13-.01.32-.01.64-.01 1 .18-.22.3-.42.48-.59.32-.33.68-.56 1.11-.7.48-.17.98-.19 1.46-.14.79.07 1.48.38 2.02.98.25.28.44.61.57.96z" id="h"/><path d="M10.59 281.02c0-.12-.03-.17-.16-.16H8.06c-.11 0-.14.03-.14.14v8.26c0 .11.03.15.15.15h2.37c.1-.03.15-.08.15-.15-.01-2.75-.01-5.5 0-8.24z" id="i"/><path d="M10.59 278.21c0 .76-.55 1.34-1.38 1.34-.8 0-1.35-.56-1.35-1.35-.01-.75.54-1.37 1.37-1.34.85-.03 1.35.61 1.36 1.35z" id="j"/><path d="M0 210.84h30v30H0v-30z" id="k"/><path d="M7.67 227.15c.19.03.37.06.56.06.27 0 .56-.03.84-.1a3.113 3.113 0 0 1-2.48-3.04v-.03c.43.22.89.38 1.4.38a3.071 3.071 0 0 1-1.37-2.55c0-.57.16-1.05.43-1.5 1.5 1.84 3.76 3.01 6.32 3.16-.06-.21-.06-.48-.06-.73 0-1.68 1.37-3.08 3.1-3.08.88 0 1.68.37 2.26.97.68-.14 1.34-.39 1.93-.75-.22.72-.73 1.31-1.37 1.71.64-.07 1.21-.24 1.77-.48-.39.63-.91 1.18-1.51 1.61v.4c0 4.08-3.08 8.78-8.76 8.78-1.75 0-3.39-.37-4.73-1.27.24.03.49.06.72.06 1.46 0 2.81-.62 3.83-1.45a3.068 3.068 0 0 1-2.88-2.15z" id="l"/><path d="M10.55 198.95a3.068 3.068 0 0 1-2.88-2.15c.19.03.37.06.56.06.27 0 .56-.03.84-.1a3.113 3.113 0 0 1-2.48-3.04v-.03c.43.22.89.38 1.4.38a3.071 3.071 0 0 1-1.37-2.55c0-.57.16-1.05.43-1.5 1.5 1.84 3.76 3.01 6.32 3.16-.06-.21-.06-.48-.06-.73 0-1.68 1.37-3.08 3.1-3.08.88 0 1.68.37 2.26.97.68-.14 1.34-.39 1.93-.75-.22.72-.73 1.31-1.37 1.71.64-.07 1.21-.24 1.77-.48-.39.63-.91 1.18-1.51 1.61v.4c0 4.08-3.08 8.78-8.76 8.78-1.75 0-3.39-.37-4.73-1.27.24.03.49.06.72.06 1.46 0 2.81-.62 3.83-1.45z" id="m"/><path d="M7.59 126.08c7.78 0 14.1 6.33 14.1 14.1 0 .36-.3.65-.66.65-.45-.19-.66-.41-.66-.65 0-7.04-5.73-12.78-12.78-12.78-.36 0-.66-.3-.66-.66 0-.36.3-.66.66-.66z" id="n"/><path d="M7.34 129.78c5.6 0 10.16 4.56 10.16 10.15 0 .36-.3.66-.67.66-.44-.2-.65-.42-.65-.66 0-4.87-3.97-8.83-8.84-8.83-.36 0-.65-.29-.65-.65 0-.37.29-.67.65-.67z" id="o"/><path d="M7.34 133.94c3.31 0 6 2.69 6 5.99 0 .36-.3.66-.67.66-.43-.2-.65-.42-.65-.66 0-2.57-2.1-4.67-4.68-4.67-.36 0-.65-.3-.65-.66 0-.37.29-.66.65-.66z" id="p"/><path d="M8.18 137.59c-.79.35-1.19.75-1.19 1.19 0 .66.53 1.19 1.19 1.19.66 0 1.19-.53 1.19-1.19 0-.65-.53-1.19-1.19-1.19z" id="q"/><path d="M.03 180.66v-30h30v30h-30z" id="r"/><path d="M20.92 171.78c0 .36-.3.66-.67.66-.45-.19-.67-.42-.67-.66 0-7.16-5.83-12.99-12.99-12.99a.67.67 0 0 1-.67-.67c0-.38.3-.68.67-.68 7.9 0 14.33 6.44 14.33 14.34z" id="s"/><path d="M16.91 171.78c0 .36-.3.66-.68.66-.45-.19-.66-.42-.66-.66 0-4.95-4.03-8.98-8.98-8.98-.38 0-.67-.3-.67-.67 0-.37.29-.67.67-.67 5.69 0 10.32 4.63 10.32 10.32z" id="t"/><path d="M12.68 171.78c0 .36-.3.66-.67.66-.45-.19-.67-.42-.67-.66a4.767 4.767 0 0 0-4.75-4.75c-.38 0-.67-.3-.67-.67 0-.37.29-.67.67-.67 3.35 0 6.09 2.73 6.09 6.09z" id="u"/><path d="M6.23 170.61c0 .66.54 1.2 1.21 1.2.67.03 1.23-.49 1.25-1.16.03-.66-.49-1.22-1.15-1.25h-.1c-.81.35-1.21.76-1.21 1.21z" id="v"/><path d="M11.29 80.86a.21.21 0 0 0 .07-.13v-.06-.45c0-.2 0-.44-.01-.72-2.09.38-2.59-1.09-2.6-1.16-.33-.84-.8-1.05-.8-1.05l-.01-.01c-1.06-.72.12-.7.12-.7h.01c.83.05 1.26.81 1.29.86.26.43.56.64.87.72.44.14.9 0 1.16-.1.04-.22.1-.41.18-.58.05-.1.1-.19.16-.28-.79-.11-1.6-.34-2.22-.87-.7-.58-1.18-1.52-1.18-3.05 0-.43.08-.82.22-1.18.13-.34.32-.66.57-.93-.05-.13-.12-.37-.13-.67-.03-.37.01-.85.23-1.41l.01-.01s.09-.08.23-.09c.08 0 .22 0 .4.04.35.07.89.27 1.64.77.29-.09.6-.14.9-.19a8.723 8.723 0 0 1 2.03 0c.3.05.61.1.91.19 1.49-1 2.18-.78 2.19-.78 0 0 .02 0 .06.02.01.03.02.04.02.05.22.56.26 1.04.23 1.41-.01.3-.08.54-.12.67.51.59.78 1.34.78 2.11 0 1.53-.47 2.47-1.18 3.06-.63.52-1.43.75-2.23.86.09.12.18.27.25.45.08.25.14.54.14.88 0 .63 0 1.28-.01 1.71v.43c0 .01 0 .04.01.06.01.05.03.1.06.14.03.01.05.03.09.04h.25c.01.15.01.24.02.25-.06.02-.12.02-.17.02-.04 0-.09 0-.14-.02-.43 0-3.92.01-4.36.01-.04.01-.08.01-.13.01s-.1 0-.16-.02c0-.01.01-.1.02-.25h.24c.04-.02.07-.04.09-.05z" id="w"/><path d="M0 120.71v-30h30v30H0z" id="x"/><path d="M12.04 110.08v-.06-.45c0-.2 0-.44-.01-.72-2.09.38-2.59-1.09-2.6-1.16-.33-.84-.8-1.05-.8-1.05l-.01-.01c-1.06-.72.12-.7.12-.7h.01c.83.05 1.27.81 1.29.86.26.43.56.64.87.72.44.14.9 0 1.16-.1.04-.22.1-.41.18-.58.05-.1.11-.19.16-.28-.79-.11-1.6-.34-2.22-.87-.7-.58-1.18-1.52-1.18-3.05 0-.43.08-.82.22-1.18.13-.34.32-.66.57-.93-.05-.13-.12-.37-.13-.67-.03-.37.01-.85.23-1.41l.01-.01s.09-.08.23-.09c.08 0 .22 0 .4.04.35.07.89.27 1.64.77.29-.09.6-.14.9-.19a8.723 8.723 0 0 1 2.03 0 7 7 0 0 1 .91.19c1.5-1 2.18-.78 2.19-.78 0 0 .02 0 .06.02.01.03.02.04.02.05.22.56.26 1.04.23 1.41-.01.3-.08.54-.12.67.51.59.78 1.34.78 2.11 0 1.53-.47 2.47-1.18 3.06-.63.52-1.43.75-2.23.86.09.12.18.27.25.45.08.25.14.54.14.88 0 .63 0 1.28-.01 1.71v.43c0 .01 0 .04.01.06.01.05.03.1.07.14.02.01.05.03.08.04h.25c.01.15.01.24.02.25-.06.02-.11.02-.16.02s-.1 0-.14-.02c-.44 0-3.93.01-4.37.01-.04.01-.08.01-.13.01s-.1 0-.16-.02c0-.01.01-.1.02-.25h.24c.04-.01.06-.03.09-.05a.21.21 0 0 0 .07-.13z" id="y"/><path d="M0 61V31h30v30H0z" id="z"/><path d="M12.2 52.1v-6.34h-1.35v-1.83h1.35V42.7c0-.54.01-1.37.44-1.89.44-.55 1.05-.92 2.1-.92 1.71 0 2.42.23 2.42.23-.03.19-.31 1.68-.34 1.87 0 0-.56-.15-1.09-.15s-1 .18-1 .67v1.43h2.16l-.15 1.83h-2.01v6.33" id="A"/><path d="M12.03 21.75v-6.34h-1.35v-1.83h1.35v-1.23c0-.54.01-1.37.44-1.89.44-.55 1.05-.92 2.1-.92 1.71 0 2.42.23 2.42.23-.03.19-.31 1.68-.34 1.87 0 0-.56-.15-1.09-.15s-1 .18-1 .67v1.43h2.16l-.15 1.83h-2.01v6.33" id="B"/><path d="M11.78 309.17l.29.05.28.08.28.09.26.12.26.15.24.16.23.19.2-.1.2-.1.21-.09.21-.09.21-.06.22-.05.22-.02h.22l.23.05.23.09.18.16.13.19.08.23.04.23-.02.24-.08.23-.12.2-.19.16-.19.1-.18.04-.18-.03-.17-.07-.17-.09-.17-.11-.17-.1-.17-.08-.18-.05.05.32.04.32.02.32-.01.33-.03.32-.07.31-.11.3-.15.29-.2.26-.29.3-.32.24-.36.2-.37.15-.39.11-.41.07-.41.04h-.41l-.4-.03-.18-.01-.16.06-.15.1-.12.15-.08.16-.04.17.03.15.1.13.17.08.39.05.39.03h.78l.39-.01h.4l.39.01.39.03.38.05.31.08.31.12.29.14.27.18.25.21.22.23.19.26.15.28.11.31.08.34.01.34-.04.33-.08.33-.13.31-.17.3-.2.28-.24.25-.26.22-.48.29-.5.24-.53.19-.54.14-.55.09-.56.06-.57.01-.56-.02-.55-.06-.2-.04-.19-.04-.19-.03-.19-.05-.19-.04-.19-.06-.18-.07-.18-.09-.17-.1-.17-.12-.15-.13-.14-.15-.12-.16-.1-.18-.08-.18-.05-.19-.02-.2.02-.2.05-.26.1-.24.13-.22.17-.2.19-.18.2-.17.22-.15.23-.14.23-.12-.09-.07-.11-.09-.13-.1-.14-.12-.14-.13-.12-.15-.1-.15-.07-.17-.03-.18-.03-.3.03-.28.09-.27.13-.25.16-.24.2-.22.22-.19.24-.17.25-.15-.04-.08-.07-.09-.1-.1-.11-.1-.12-.1-.12-.11-.12-.11-.09-.12-.07-.12-.15-.27-.12-.28-.09-.3-.06-.3-.03-.31v-.3l.03-.31.07-.3.09-.29.22-.38.26-.32.32-.28.35-.22.39-.18.4-.14.42-.09.43-.05.42-.01h.29l.29.03zm-.76 8.79l-.27.02-.38.05-.44.12-.38.25-.21.4v.52l.23.45.39.35.48.22.61.11.62.01.62-.11.57-.23.37-.26.24-.38.07-.43-.12-.44-.34-.37-.44-.2-.51-.08-.5-.01h-.39l-.22.01zm-.46-7.57l-.2.31-.12.34-.07.5-.05.51.02.51.08.5.18.43.35.31.41.09.4-.26.26-.57.11-.68.03-.69v-.58l-.04-.45-.14-.33-.25-.2-.35-.06-.35.09-.27.23z" id="C"/><path d="M12.45 339.16l.28.05.29.07.27.1.27.12.25.14.25.17.22.18.2-.1.21-.09.2-.1.21-.08.22-.07.22-.05.22-.02.22.01.23.04.22.1.18.15.13.2.09.22.03.24-.02.24-.07.22-.13.2-.18.16-.19.11-.19.03-.17-.02-.18-.07-.16-.1-.17-.1-.17-.1-.17-.09-.18-.04.05.31.04.32.01.33v.33l-.04.32-.07.31-.1.3-.16.28-.19.27-.29.29-.33.25-.35.19-.38.16-.39.11-.4.07-.41.03h-.41l-.41-.02-.17-.01-.17.05-.15.11-.12.14-.08.17-.03.16.03.16.09.12.18.09.39.05.39.02.39.01h.39l.39-.01h.78l.39.03.39.06.31.08.3.11.29.15.28.18.24.2.23.24.19.25.15.29.11.3.07.34.02.34-.04.34-.09.33-.13.31-.17.3-.2.27-.23.25-.26.22-.48.3-.51.24-.52.19-.54.14-.56.09-.56.05-.56.01-.56-.02-.56-.05-.19-.04-.19-.04-.19-.04-.19-.04-.19-.05-.19-.06-.18-.07-.18-.08-.18-.1-.16-.12-.15-.14-.14-.15-.12-.16-.1-.17-.08-.18-.05-.19-.02-.2.01-.2.06-.26.09-.24.14-.22.16-.21.19-.18.21-.16.22-.15.22-.14.23-.12-.08-.07-.11-.09-.13-.1-.14-.12-.14-.14-.12-.14-.11-.16-.07-.17-.03-.17-.02-.3.03-.28.08-.27.13-.26.17-.24.2-.21.22-.2.24-.17.24-.14-.04-.09-.07-.09-.09-.09-.12-.1-.12-.11-.12-.11-.11-.11-.1-.12-.07-.12-.14-.27-.12-.28-.09-.29-.06-.3-.03-.31v-.31l.03-.3.06-.3.1-.29.21-.38.27-.33.31-.27.36-.23.38-.18.41-.13.42-.09.42-.05.42-.02.29.01.3.03zm-.76 8.78l-.27.02-.38.05-.44.13-.39.24-.21.4.01.52.23.46.39.35.47.22.61.1.63.01.61-.1.58-.24.37-.26.23-.37.08-.44-.12-.43-.34-.37-.45-.2-.5-.09h-.5l-.2-.01h-.2l-.21.01zm-.46-7.56l-.2.31-.12.33-.08.5-.04.51.01.51.09.5.18.43.34.32.42.08.39-.26.26-.56.12-.68.03-.69v-.59l-.05-.44-.14-.33-.24-.2-.35-.06-.35.09-.27.23z" id="D"/></defs><rect id="ee-background" x="0" y="0" width="31" height="389" style="fill: white; fill-opacity: 0; pointer-events: none;"/><g transform="matrix(0.9990010261535645, 0, 0, 0.9985450398058552, 0.3710937201976776, 0.1315437833944401)"><use xlink:href="#a"/><use fill="#dc4e41" xlink:href="#b"/><use fill-opacity="0" stroke="#000" stroke-opacity="0" xlink:href="#b"/><use fill="#fff" xlink:href="#c"/><use xlink:href="#d"/><use xlink:href="#e"/><use xlink:href="#f"/><use fill="#0378b5" xlink:href="#g"/><use fill-opacity="0" stroke="#000" stroke-opacity="0" xlink:href="#g"/><use fill="#fff" xlink:href="#h"/><use fill="#fff" xlink:href="#i"/><use fill="#fff" xlink:href="#j"/><use fill="#55acee" xlink:href="#k"/><use fill="#fff" xlink:href="#l"/><use xlink:href="#m"/><use xlink:href="#n"/><use xlink:href="#o"/><use xlink:href="#p"/><use xlink:href="#q"/><use fill="#f38b00" xlink:href="#r"/><use fill="#fff" xlink:href="#s"/><use fill="#fff" xlink:href="#t"/><use fill="#fff" xlink:href="#u"/><use fill="#fff" xlink:href="#v"/><use fill="#424242" xlink:href="#w"/><use fill="#424242" xlink:href="#x"/><use fill="#fff" xlink:href="#y"/><use fill="#3d5193" xlink:href="#z"/><use fill="#fff" xlink:href="#A"/><use xlink:href="#B"/><g><use xlink:href="#C"/></g><g><use fill="#fff7f7" xlink:href="#D"/></g></g><g transform="matrix(0.054443109780549996, 0, 0, 0.054443083703517914, -0.694437026977539, 359.1015930175781)"><g>
	
		<linearGradient id="SVGID_1_" gradientUnits="userSpaceOnUse" x1="275.517" y1="4.57" x2="275.517" y2="549.72" gradientTransform="matrix(1 0 0 -1 0 554)">
		<stop offset="0" style="stop-color:#E09B3D"/>
		<stop offset="0.3" style="stop-color:#C74C4D"/>
		<stop offset="0.6" style="stop-color:#C21975"/>
		<stop offset="1" style="stop-color:#7024C4"/>
	</linearGradient>
	<path style="fill:url(#SVGID_1_);" d="M386.878,0H164.156C73.64,0,0,73.64,0,164.156v222.722&#10;&#9;&#9;c0,90.516,73.64,164.156,164.156,164.156h222.722c90.516,0,164.156-73.64,164.156-164.156V164.156&#10;&#9;&#9;C551.033,73.64,477.393,0,386.878,0z M495.6,386.878c0,60.045-48.677,108.722-108.722,108.722H164.156&#10;&#9;&#9;c-60.045,0-108.722-48.677-108.722-108.722V164.156c0-60.046,48.677-108.722,108.722-108.722h222.722&#10;&#9;&#9;c60.045,0,108.722,48.676,108.722,108.722L495.6,386.878L495.6,386.878z"/>
	
		<linearGradient id="SVGID_2_" gradientUnits="userSpaceOnUse" x1="275.517" y1="4.57" x2="275.517" y2="549.72" gradientTransform="matrix(1 0 0 -1 0 554)">
		<stop offset="0" style="stop-color:#E09B3D"/>
		<stop offset="0.3" style="stop-color:#C74C4D"/>
		<stop offset="0.6" style="stop-color:#C21975"/>
		<stop offset="1" style="stop-color:#7024C4"/>
	</linearGradient>
	<path style="fill:url(#SVGID_2_);" d="M275.517,133C196.933,133,133,196.933,133,275.516s63.933,142.517,142.517,142.517&#10;&#9;&#9;S418.034,354.1,418.034,275.516S354.101,133,275.517,133z M275.517,362.6c-48.095,0-87.083-38.988-87.083-87.083&#10;&#9;&#9;s38.989-87.083,87.083-87.083c48.095,0,87.083,38.988,87.083,87.083C362.6,323.611,323.611,362.6,275.517,362.6z"/>
	
		<linearGradient id="SVGID_3_" gradientUnits="userSpaceOnUse" x1="418.31" y1="4.57" x2="418.31" y2="549.72" gradientTransform="matrix(1 0 0 -1 0 554)">
		<stop offset="0" style="stop-color:#E09B3D"/>
		<stop offset="0.3" style="stop-color:#C74C4D"/>
		<stop offset="0.6" style="stop-color:#C21975"/>
		<stop offset="1" style="stop-color:#7024C4"/>
	</linearGradient>
	<path d="M 452.459999 134.070007 A 34.150002 34.150002 0 0 1 418.309998 168.220009 A 34.150002 34.150002 0 0 1 384.159996 134.070007 A 34.150002 34.150002 0 0 1 418.309998 99.920006 A 34.150002 34.150002 0 0 1 452.459999 134.070007 Z" style="fill:url(#SVGID_3_);"/>
</g><g>
</g><g>
</g><g>
</g><g>
</g><g>
</g><g>
</g><g>
</g><g>
</g><g>
</g><g>
</g><g>
</g><g>
</g><g>
</g><g>
</g><g>
</g></g></svg>