<?xml version="1.0" encoding="UTF-8"?>
<!DOCTYPE svg  PUBLIC '-//W3C//DTD SVG 1.1//EN'  'http://www.w3.org/Graphics/SVG/1.1/DTD/svg11.dtd'>
<svg width="30.03" height="380.46" version="1.1" viewBox="-1 8.54 34.03 384.46" xmlns="http://www.w3.org/2000/svg" xmlns:xlink="http://www.w3.org/1999/xlink">
<defs>
<path id="ae" d="m21.18 316.97v-1.02-0.52c0-0.1 0.06-0.06 0.17-0.06h1.34c0.13 0 0.28 0.02 0.4-0.06 0.18-0.12 0.16-0.31 0.16-0.49 0-0.29 0.13-0.95-0.16-1.13-0.26-0.17-0.82-0.06-1.11-0.06-0.14 0-0.8 0.07-0.8-0.07v-1.22c0-0.34 0-0.67-0.45-0.67h-0.64c-0.16 0-0.37-0.03-0.53 0.03-0.35 0.14-0.23 0.74-0.23 1.01 0 0.08 0.02 0.92 0 0.92h-1.18c-0.33 0-0.87-0.09-0.87 0.36v1.03c0 0.45 0.61 0.35 0.91 0.35 0.1 0 1.14-0.01 1.14 0.01v1.28c0 0.13-0.02 0.32 0.04 0.45 0.1 0.23 0.35 0.22 0.56 0.22 0.33 0 1.25 0.16 1.25-0.36"/>
<path id="az" d="m21.18 316.97v-1.02-0.52c0-0.1 0.06-0.06 0.17-0.06h1.34c0.13 0 0.28 0.02 0.4-0.06 0.18-0.12 0.16-0.31 0.16-0.49 0-0.29 0.13-0.95-0.16-1.13-0.26-0.17-0.82-0.06-1.11-0.06-0.14 0-0.8 0.07-0.8-0.07v-1.22c0-0.34 0-0.67-0.45-0.67h-0.64c-0.16 0-0.37-0.03-0.53 0.03-0.35 0.14-0.23 0.74-0.23 1.01 0 0.08 0.02 0.92 0 0.92h-1.18c-0.33 0-0.87-0.09-0.87 0.36v1.03c0 0.45 0.61 0.35 0.91 0.35 0.1 0 1.14-0.01 1.14 0.01v1.28c0 0.13-0.02 0.32 0.04 0.45 0.1 0.23 0.35 0.22 0.56 0.22 0.33 0 1.25 0.16 1.25-0.36"/>
<path id="ap" d="m30 330.05v30h-30v-30h30z"/>
<path id="h" d="m30 330.05v30h-30v-30h30z"/>
<path id="aw" d="m30 330.05v30h-30v-30h30z"/>
<path id="aj" d="m30 330.05v30h-30v-30h30z"/>
<path id="t" d="m22.33 346.85v-1.02-0.51c0-0.1 0.06-0.06 0.17-0.06h1.33c0.13 0 0.29 0.02 0.41-0.06 0.18-0.12 0.15-0.31 0.15-0.49 0-0.29 0.14-0.95-0.15-1.13-0.27-0.17-0.83-0.06-1.12-0.06-0.13 0-0.79 0.07-0.79-0.07v-1.22c0-0.33 0-0.67-0.46-0.67h-0.64c-0.15 0-0.37-0.02-0.52 0.04-0.35 0.13-0.23 0.73-0.23 1.01 0 0.07 0.01 0.91 0 0.91h-1.19c-0.33 0-0.87-0.09-0.87 0.36v1.03c0 0.44 0.62 0.35 0.92 0.35 0.09 0 1.14-0.01 1.14 0.01v1.27c0 0.13-0.03 0.33 0.03 0.46 0.1 0.23 0.35 0.21 0.57 0.21 0.32 0 1.25 0.16 1.25-0.36"/>
<path id="q" d="m22.33 346.85v-1.02-0.51c0-0.1 0.06-0.06 0.17-0.06h1.33c0.13 0 0.29 0.02 0.41-0.06 0.18-0.12 0.15-0.31 0.15-0.49 0-0.29 0.14-0.95-0.15-1.13-0.27-0.17-0.83-0.06-1.12-0.06-0.13 0-0.79 0.07-0.79-0.07v-1.22c0-0.33 0-0.67-0.46-0.67h-0.64c-0.15 0-0.37-0.02-0.52 0.04-0.35 0.13-0.23 0.73-0.23 1.01 0 0.07 0.01 0.91 0 0.91h-1.19c-0.33 0-0.87-0.09-0.87 0.36v1.03c0 0.44 0.62 0.35 0.92 0.35 0.09 0 1.14-0.01 1.14 0.01v1.27c0 0.13-0.03 0.33 0.03 0.46 0.1 0.23 0.35 0.21 0.57 0.21 0.32 0 1.25 0.16 1.25-0.36"/>
<path id="af" d="m20.4 253.8c0.04 0.25 0.09 0.5 0.09 0.76 0 1.75 0 3.51 0.01 5.26 0 0.09-0.03 0.12-0.11 0.12-0.81 0-1.61-0.01-2.41 0-0.12 0-0.13-0.05-0.13-0.14v-4.6c0-0.29-0.02-0.58-0.11-0.84-0.13-0.45-0.41-0.78-0.87-0.95-0.38-0.14-0.77-0.16-1.17-0.06-0.43 0.11-0.74 0.39-0.95 0.78-0.13 0.22-0.17 0.44-0.2 0.69-0.01 0.19-0.02 0.37-0.02 0.56v4.41c0 0.12-0.04 0.15-0.15 0.15-0.78-0.01-1.56-0.01-2.34 0-0.14 0-0.15-0.05-0.15-0.17v-8.13c0-0.32 0-0.32 0.32-0.32h2.19c0.1 0 0.13 0.03 0.13 0.13-0.01 0.32-0.01 0.64-0.01 1 0.18-0.22 0.3-0.42 0.48-0.59 0.32-0.33 0.68-0.56 1.11-0.7 0.48-0.17 0.98-0.19 1.46-0.14 0.79 0.07 1.48 0.38 2.02 0.98 0.25 0.28 0.44 0.61 0.57 0.96 0.11 0.28 0.19 0.55 0.24 0.84z"/>
<path id="w" d="m20.4 253.8c0.04 0.25 0.09 0.5 0.09 0.76 0 1.75 0 3.51 0.01 5.26 0 0.09-0.03 0.12-0.11 0.12-0.81 0-1.61-0.01-2.41 0-0.12 0-0.13-0.05-0.13-0.14v-4.6c0-0.29-0.02-0.58-0.11-0.84-0.13-0.45-0.41-0.78-0.87-0.95-0.38-0.14-0.77-0.16-1.17-0.06-0.43 0.11-0.74 0.39-0.95 0.78-0.13 0.22-0.17 0.44-0.2 0.69-0.01 0.19-0.02 0.37-0.02 0.56v4.41c0 0.12-0.04 0.15-0.15 0.15-0.78-0.01-1.56-0.01-2.34 0-0.14 0-0.15-0.05-0.15-0.17v-8.13c0-0.32 0-0.32 0.32-0.32h2.19c0.1 0 0.13 0.03 0.13 0.13-0.01 0.32-0.01 0.64-0.01 1 0.18-0.22 0.3-0.42 0.48-0.59 0.32-0.33 0.68-0.56 1.11-0.7 0.48-0.17 0.98-0.19 1.46-0.14 0.79 0.07 1.48 0.38 2.02 0.98 0.25 0.28 0.44 0.61 0.57 0.96 0.11 0.28 0.19 0.55 0.24 0.84z"/>
<path id="b" d="m10.08 259.94h-2.37c-0.11 0-0.14-0.03-0.14-0.14v-4.13-4.13c0-0.11 0.03-0.15 0.15-0.15h2.37c0.1 0.03 0.15 0.08 0.15 0.15-0.01 2.75-0.01 5.5 0 8.24 0 0.12-0.03 0.17-0.16 0.16z"/>
<path id="bf" d="m10.08 259.94h-2.37c-0.11 0-0.14-0.03-0.14-0.14v-4.13-4.13c0-0.11 0.03-0.15 0.15-0.15h2.37c0.1 0.03 0.15 0.08 0.15 0.15-0.01 2.75-0.01 5.5 0 8.24 0 0.12-0.03 0.17-0.16 0.16z"/>
<path id="be" d="m8.85 249.7c-0.8 0-1.35-0.56-1.35-1.35-0.01-0.75 0.54-1.37 1.37-1.34 0.85-0.03 1.35 0.61 1.36 1.35 0 0.76-0.55 1.34-1.38 1.34z"/>
<path id="bj" d="m8.85 249.7c-0.8 0-1.35-0.56-1.35-1.35-0.01-0.75 0.54-1.37 1.37-1.34 0.85-0.03 1.35 0.61 1.36 1.35 0 0.76-0.55 1.34-1.38 1.34z"/>
<path id="at" d="m30 270.3v30h-30v-30h30z"/>
<path id="bk" d="m30 270.3v30h-30v-30h30z"/>
<path id="ab" d="m30 270.3v30h-30v-30h30z"/>
<path id="v" d="m30 270.3v30h-30v-30h30z"/>
<path id="i" d="m20.85 284.42c0 1.75 0 3.51 0.01 5.26 0 0.09-0.03 0.12-0.11 0.12-0.81 0-1.61-0.01-2.41 0-0.12 0-0.13-0.05-0.13-0.14v-4.6c0-0.29-0.02-0.58-0.11-0.84-0.13-0.45-0.41-0.78-0.87-0.95-0.38-0.14-0.77-0.16-1.17-0.06-0.43 0.11-0.74 0.39-0.95 0.78-0.13 0.22-0.17 0.44-0.2 0.69-0.01 0.19-0.02 0.37-0.02 0.56v4.41c0 0.12-0.04 0.15-0.15 0.15-0.78-0.01-1.56-0.01-2.34 0-0.14 0-0.15-0.05-0.15-0.17v-8.13c0-0.32 0-0.32 0.32-0.32h2.19c0.1 0 0.13 0.03 0.13 0.13-0.01 0.32-0.01 0.64-0.01 1 0.18-0.22 0.3-0.42 0.48-0.59 0.32-0.33 0.68-0.56 1.11-0.7 0.48-0.17 0.98-0.19 1.46-0.14 0.79 0.07 1.48 0.38 2.02 0.98 0.25 0.28 0.44 0.61 0.57 0.96 0.11 0.28 0.19 0.55 0.24 0.84 0.04 0.25 0.09 0.5 0.09 0.76z"/>
<path id="ag" d="m20.85 284.42c0 1.75 0 3.51 0.01 5.26 0 0.09-0.03 0.12-0.11 0.12-0.81 0-1.61-0.01-2.41 0-0.12 0-0.13-0.05-0.13-0.14v-4.6c0-0.29-0.02-0.58-0.11-0.84-0.13-0.45-0.41-0.78-0.87-0.95-0.38-0.14-0.77-0.16-1.17-0.06-0.43 0.11-0.74 0.39-0.95 0.78-0.13 0.22-0.17 0.44-0.2 0.69-0.01 0.19-0.02 0.37-0.02 0.56v4.41c0 0.12-0.04 0.15-0.15 0.15-0.78-0.01-1.56-0.01-2.34 0-0.14 0-0.15-0.05-0.15-0.17v-8.13c0-0.32 0-0.32 0.32-0.32h2.19c0.1 0 0.13 0.03 0.13 0.13-0.01 0.32-0.01 0.64-0.01 1 0.18-0.22 0.3-0.42 0.48-0.59 0.32-0.33 0.68-0.56 1.11-0.7 0.48-0.17 0.98-0.19 1.46-0.14 0.79 0.07 1.48 0.38 2.02 0.98 0.25 0.28 0.44 0.61 0.57 0.96 0.11 0.28 0.19 0.55 0.24 0.84 0.04 0.25 0.09 0.5 0.09 0.76z"/>
<path id="s" d="m8.06 280.86c-0.11 0-0.14 0.03-0.14 0.14v8.26c0 0.11 0.03 0.15 0.15 0.15h2.37c0.1-0.03 0.15-0.08 0.15-0.15-0.01-2.75-0.01-5.5 0-8.24 0-0.12-0.03-0.17-0.16-0.16h-2.37z"/>
<path id="br" d="m8.06 280.86c-0.11 0-0.14 0.03-0.14 0.14v8.26c0 0.11 0.03 0.15 0.15 0.15h2.37c0.1-0.03 0.15-0.08 0.15-0.15-0.01-2.75-0.01-5.5 0-8.24 0-0.12-0.03-0.17-0.16-0.16h-2.37z"/>
<path id="bc" d="m7.86 278.2c-0.01-0.75 0.54-1.37 1.37-1.34 0.85-0.03 1.35 0.61 1.36 1.35 0 0.76-0.55 1.34-1.38 1.34-0.8 0-1.35-0.56-1.35-1.35z"/>
<path id="ax" d="m7.86 278.2c-0.01-0.75 0.54-1.37 1.37-1.34 0.85-0.03 1.35 0.61 1.36 1.35 0 0.76-0.55 1.34-1.38 1.34-0.8 0-1.35-0.56-1.35-1.35z"/>
<path id="ak" d="m30 240.84h-30v-30h30v30z"/>
<path id="r" d="m30 240.84h-30v-30h30v30z"/>
<path id="bl" d="m9.07 227.11c-1.44-0.3-2.48-1.57-2.48-3.04v-0.03c0.43 0.22 0.89 0.38 1.4 0.38-0.85-0.57-1.37-1.52-1.37-2.55 0-0.57 0.16-1.05 0.43-1.5 1.5 1.84 3.76 3.01 6.32 3.16-0.06-0.21-0.06-0.48-0.06-0.73 0-1.68 1.37-3.08 3.1-3.08 0.88 0 1.68 0.37 2.26 0.97 0.68-0.14 1.34-0.39 1.93-0.75-0.22 0.72-0.73 1.31-1.37 1.71 0.64-0.07 1.21-0.24 1.77-0.48-0.39 0.63-0.91 1.18-1.51 1.61v0.4c0 4.08-3.08 8.78-8.76 8.78-1.75 0-3.39-0.37-4.73-1.27 0.24 0.03 0.49 0.06 0.72 0.06 1.46 0 2.81-0.62 3.83-1.45-1.32-0.02-2.48-0.89-2.88-2.15 0.19 0.03 0.37 0.06 0.56 0.06 0.27 0 0.56-0.03 0.84-0.1z"/>
<path id="bi" d="m9.07 227.11c-1.44-0.3-2.48-1.57-2.48-3.04v-0.03c0.43 0.22 0.89 0.38 1.4 0.38-0.85-0.57-1.37-1.52-1.37-2.55 0-0.57 0.16-1.05 0.43-1.5 1.5 1.84 3.76 3.01 6.32 3.16-0.06-0.21-0.06-0.48-0.06-0.73 0-1.68 1.37-3.08 3.1-3.08 0.88 0 1.68 0.37 2.26 0.97 0.68-0.14 1.34-0.39 1.93-0.75-0.22 0.72-0.73 1.31-1.37 1.71 0.64-0.07 1.21-0.24 1.77-0.48-0.39 0.63-0.91 1.18-1.51 1.61v0.4c0 4.08-3.08 8.78-8.76 8.78-1.75 0-3.39-0.37-4.73-1.27 0.24 0.03 0.49 0.06 0.72 0.06 1.46 0 2.81-0.62 3.83-1.45-1.32-0.02-2.48-0.89-2.88-2.15 0.19 0.03 0.37 0.06 0.56 0.06 0.27 0 0.56-0.03 0.84-0.1z"/>
<path id="a" d="m8.23 196.86c0.27 0 0.56-0.03 0.84-0.1-1.44-0.3-2.48-1.57-2.48-3.04v-0.03c0.43 0.22 0.89 0.38 1.4 0.38-0.85-0.57-1.37-1.52-1.37-2.55 0-0.57 0.16-1.05 0.43-1.5 1.5 1.84 3.76 3.01 6.32 3.16-0.06-0.21-0.06-0.48-0.06-0.73 0-1.68 1.37-3.08 3.1-3.08 0.88 0 1.68 0.37 2.26 0.97 0.68-0.14 1.34-0.39 1.93-0.75-0.22 0.72-0.73 1.31-1.37 1.71 0.64-0.07 1.21-0.24 1.77-0.48-0.39 0.63-0.91 1.18-1.51 1.61v0.4c0 4.08-3.08 8.78-8.76 8.78-1.75 0-3.39-0.37-4.73-1.27 0.24 0.03 0.49 0.06 0.72 0.06 1.46 0 2.81-0.62 3.83-1.45-1.32-0.02-2.48-0.89-2.88-2.15 0.19 0.03 0.37 0.06 0.56 0.06z"/>
<path id="ay" d="m8.23 196.86c0.27 0 0.56-0.03 0.84-0.1-1.44-0.3-2.48-1.57-2.48-3.04v-0.03c0.43 0.22 0.89 0.38 1.4 0.38-0.85-0.57-1.37-1.52-1.37-2.55 0-0.57 0.16-1.05 0.43-1.5 1.5 1.84 3.76 3.01 6.32 3.16-0.06-0.21-0.06-0.48-0.06-0.73 0-1.68 1.37-3.08 3.1-3.08 0.88 0 1.68 0.37 2.26 0.97 0.68-0.14 1.34-0.39 1.93-0.75-0.22 0.72-0.73 1.31-1.37 1.71 0.64-0.07 1.21-0.24 1.77-0.48-0.39 0.63-0.91 1.18-1.51 1.61v0.4c0 4.08-3.08 8.78-8.76 8.78-1.75 0-3.39-0.37-4.73-1.27 0.24 0.03 0.49 0.06 0.72 0.06 1.46 0 2.81-0.62 3.83-1.45-1.32-0.02-2.48-0.89-2.88-2.15 0.19 0.03 0.37 0.06 0.56 0.06z"/>
<path id="aq" d="m21.03 140.83c-0.45-0.19-0.66-0.41-0.66-0.65 0-7.04-5.73-12.78-12.78-12.78-0.36 0-0.66-0.3-0.66-0.66s0.3-0.66 0.66-0.66c7.78 0 14.1 6.33 14.1 14.1 0 0.36-0.3 0.65-0.66 0.65z"/>
<path id="al" d="m21.03 140.83c-0.45-0.19-0.66-0.41-0.66-0.65 0-7.04-5.73-12.78-12.78-12.78-0.36 0-0.66-0.3-0.66-0.66s0.3-0.66 0.66-0.66c7.78 0 14.1 6.33 14.1 14.1 0 0.36-0.3 0.65-0.66 0.65z"/>
<path id="am" d="m16.83 140.59c-0.44-0.2-0.65-0.42-0.65-0.66 0-4.87-3.97-8.83-8.84-8.83-0.36 0-0.65-0.29-0.65-0.65 0-0.37 0.29-0.67 0.65-0.67 5.6 0 10.16 4.56 10.16 10.15 0 0.36-0.3 0.66-0.67 0.66z"/>
<path id="ah" d="m16.83 140.59c-0.44-0.2-0.65-0.42-0.65-0.66 0-4.87-3.97-8.83-8.84-8.83-0.36 0-0.65-0.29-0.65-0.65 0-0.37 0.29-0.67 0.65-0.67 5.6 0 10.16 4.56 10.16 10.15 0 0.36-0.3 0.66-0.67 0.66z"/>
<path id="ad" d="m12.67 140.59c-0.43-0.2-0.65-0.42-0.65-0.66 0-2.57-2.1-4.67-4.68-4.67-0.36 0-0.65-0.3-0.65-0.66 0-0.37 0.29-0.66 0.65-0.66 3.31 0 6 2.69 6 5.99 0 0.36-0.3 0.66-0.67 0.66z"/>
<path id="g" d="m12.67 140.59c-0.43-0.2-0.65-0.42-0.65-0.66 0-2.57-2.1-4.67-4.68-4.67-0.36 0-0.65-0.3-0.65-0.66 0-0.37 0.29-0.66 0.65-0.66 3.31 0 6 2.69 6 5.99 0 0.36-0.3 0.66-0.67 0.66z"/>
<path id="bq" d="m8.18 139.97c0.66 0 1.19-0.53 1.19-1.19 0-0.65-0.53-1.19-1.19-1.19-0.79 0.35-1.19 0.75-1.19 1.19 0 0.66 0.53 1.19 1.19 1.19z"/>
<path id="y" d="m8.18 139.97c0.66 0 1.19-0.53 1.19-1.19 0-0.65-0.53-1.19-1.19-1.19-0.79 0.35-1.19 0.75-1.19 1.19 0 0.66 0.53 1.19 1.19 1.19z"/>
<path id="ba" d="m30.03 150.66v30h-30v-30h30z"/>
<path id="l" d="m30.03 150.66v30h-30v-30h30z"/>
<path id="bs" d="m19.58 171.78c0-7.16-5.83-12.99-12.99-12.99-0.37 0-0.67-0.3-0.67-0.67 0-0.38 0.3-0.68 0.67-0.68 7.9 0 14.33 6.44 14.33 14.34 0 0.36-0.3 0.66-0.67 0.66-0.45-0.19-0.67-0.42-0.67-0.66z"/>
<path id="bn" d="m19.58 171.78c0-7.16-5.83-12.99-12.99-12.99-0.37 0-0.67-0.3-0.67-0.67 0-0.38 0.3-0.68 0.67-0.68 7.9 0 14.33 6.44 14.33 14.34 0 0.36-0.3 0.66-0.67 0.66-0.45-0.19-0.67-0.42-0.67-0.66z"/>
<path id="z" d="m15.57 171.78c0-4.95-4.03-8.98-8.98-8.98-0.38 0-0.67-0.3-0.67-0.67s0.29-0.67 0.67-0.67c5.69 0 10.32 4.63 10.32 10.32 0 0.36-0.3 0.66-0.68 0.66-0.45-0.19-0.66-0.42-0.66-0.66z"/>
<path id="c" d="m15.57 171.78c0-4.95-4.03-8.98-8.98-8.98-0.38 0-0.67-0.3-0.67-0.67s0.29-0.67 0.67-0.67c5.69 0 10.32 4.63 10.32 10.32 0 0.36-0.3 0.66-0.68 0.66-0.45-0.19-0.66-0.42-0.66-0.66z"/>
<path id="bp" d="m11.34 171.78c-0.01-2.62-2.13-4.74-4.75-4.75-0.38 0-0.67-0.3-0.67-0.67s0.29-0.67 0.67-0.67c3.35 0 6.09 2.73 6.09 6.09 0 0.36-0.3 0.66-0.67 0.66-0.45-0.19-0.67-0.42-0.67-0.66z"/>
<path id="aa" d="m11.34 171.78c-0.01-2.62-2.13-4.74-4.75-4.75-0.38 0-0.67-0.3-0.67-0.67s0.29-0.67 0.67-0.67c3.35 0 6.09 2.73 6.09 6.09 0 0.36-0.3 0.66-0.67 0.66-0.45-0.19-0.67-0.42-0.67-0.66z"/>
<path id="bd" d="m8.69 170.65c0.03-0.66-0.49-1.22-1.15-1.25h-0.1c-0.81 0.35-1.21 0.76-1.21 1.21 0 0.66 0.54 1.2 1.21 1.2 0.67 0.03 1.23-0.49 1.25-1.16z"/>
<path id="u" d="m8.69 170.65c0.03-0.66-0.49-1.22-1.15-1.25h-0.1c-0.81 0.35-1.21 0.76-1.21 1.21 0 0.66 0.54 1.2 1.21 1.2 0.67 0.03 1.23-0.49 1.25-1.16z"/>
<path id="bh" d="m11.36 80.67v-0.45c0-0.2 0-0.44-0.01-0.72-2.09 0.38-2.59-1.09-2.6-1.16-0.33-0.84-0.8-1.05-0.8-1.05l-0.01-0.01c-1.06-0.72 0.12-0.7 0.12-0.7h0.01c0.83 0.05 1.26 0.81 1.29 0.86 0.26 0.43 0.56 0.64 0.87 0.72 0.44 0.14 0.9 0 1.16-0.1 0.04-0.22 0.1-0.41 0.18-0.58 0.05-0.1 0.1-0.19 0.16-0.28-0.79-0.11-1.6-0.34-2.22-0.87-0.7-0.58-1.18-1.52-1.18-3.05 0-0.43 0.08-0.82 0.22-1.18 0.13-0.34 0.32-0.66 0.57-0.93-0.05-0.13-0.12-0.37-0.13-0.67-0.03-0.37 0.01-0.85 0.23-1.41l0.01-0.01s0.09-0.08 0.23-0.09c0.08 0 0.22 0 0.4 0.04 0.35 0.07 0.89 0.27 1.64 0.77 0.29-0.09 0.6-0.14 0.9-0.19 0.67-0.08 1.36-0.08 2.03 0 0.3 0.05 0.61 0.1 0.91 0.19 1.49-1 2.18-0.78 2.19-0.78 0 0 0.02 0 0.06 0.02 0.01 0.03 0.02 0.04 0.02 0.05 0.22 0.56 0.26 1.04 0.23 1.41-0.01 0.3-0.08 0.54-0.12 0.67 0.51 0.59 0.78 1.34 0.78 2.11 0 1.53-0.47 2.47-1.18 3.06-0.63 0.52-1.43 0.75-2.23 0.86 0.09 0.12 0.18 0.27 0.25 0.45 0.08 0.25 0.14 0.54 0.14 0.88 0 0.63 0 1.28-0.01 1.71v0.43c0 0.01 0 0.04 0.01 0.06 0.01 0.05 0.03 0.1 0.06 0.14 0.03 0.01 0.05 0.03 0.09 0.04h0.25c0.01 0.15 0.01 0.24 0.02 0.25-0.06 0.02-0.12 0.02-0.17 0.02-0.04 0-0.09 0-0.14-0.02-0.43 0-3.92 0.01-4.36 0.01-0.04 0.01-0.08 0.01-0.13 0.01s-0.1 0-0.16-0.02c0-0.01 0.01-0.1 0.02-0.25h0.24c0.04-0.02 0.07-0.04 0.09-0.05 0.04-0.03 0.06-0.08 0.07-0.13v-0.06z"/>
<path id="d" d="m11.36 80.67v-0.45c0-0.2 0-0.44-0.01-0.72-2.09 0.38-2.59-1.09-2.6-1.16-0.33-0.84-0.8-1.05-0.8-1.05l-0.01-0.01c-1.06-0.72 0.12-0.7 0.12-0.7h0.01c0.83 0.05 1.26 0.81 1.29 0.86 0.26 0.43 0.56 0.64 0.87 0.72 0.44 0.14 0.9 0 1.16-0.1 0.04-0.22 0.1-0.41 0.18-0.58 0.05-0.1 0.1-0.19 0.16-0.28-0.79-0.11-1.6-0.34-2.22-0.87-0.7-0.58-1.18-1.52-1.18-3.05 0-0.43 0.08-0.82 0.22-1.18 0.13-0.34 0.32-0.66 0.57-0.93-0.05-0.13-0.12-0.37-0.13-0.67-0.03-0.37 0.01-0.85 0.23-1.41l0.01-0.01s0.09-0.08 0.23-0.09c0.08 0 0.22 0 0.4 0.04 0.35 0.07 0.89 0.27 1.64 0.77 0.29-0.09 0.6-0.14 0.9-0.19 0.67-0.08 1.36-0.08 2.03 0 0.3 0.05 0.61 0.1 0.91 0.19 1.49-1 2.18-0.78 2.19-0.78 0 0 0.02 0 0.06 0.02 0.01 0.03 0.02 0.04 0.02 0.05 0.22 0.56 0.26 1.04 0.23 1.41-0.01 0.3-0.08 0.54-0.12 0.67 0.51 0.59 0.78 1.34 0.78 2.11 0 1.53-0.47 2.47-1.18 3.06-0.63 0.52-1.43 0.75-2.23 0.86 0.09 0.12 0.18 0.27 0.25 0.45 0.08 0.25 0.14 0.54 0.14 0.88 0 0.63 0 1.28-0.01 1.71v0.43c0 0.01 0 0.04 0.01 0.06 0.01 0.05 0.03 0.1 0.06 0.14 0.03 0.01 0.05 0.03 0.09 0.04h0.25c0.01 0.15 0.01 0.24 0.02 0.25-0.06 0.02-0.12 0.02-0.17 0.02-0.04 0-0.09 0-0.14-0.02-0.43 0-3.92 0.01-4.36 0.01-0.04 0.01-0.08 0.01-0.13 0.01s-0.1 0-0.16-0.02c0-0.01 0.01-0.1 0.02-0.25h0.24c0.04-0.02 0.07-0.04 0.09-0.05 0.04-0.03 0.06-0.08 0.07-0.13v-0.06z"/>
<path id="ai" d="m30 90.71v30h-30v-30h30z"/>
<path id="as" d="m30 90.71v30h-30v-30h30z"/>
<path id="x" d="m12.04 109.57c0-0.2 0-0.44-0.01-0.72-2.09 0.38-2.59-1.09-2.6-1.16-0.33-0.84-0.8-1.05-0.8-1.05l-0.01-0.01c-1.06-0.72 0.12-0.7 0.12-0.7h0.01c0.83 0.05 1.27 0.81 1.29 0.86 0.26 0.43 0.56 0.64 0.87 0.72 0.44 0.14 0.9 0 1.16-0.1 0.04-0.22 0.1-0.41 0.18-0.58 0.05-0.1 0.11-0.19 0.16-0.28-0.79-0.11-1.6-0.34-2.22-0.87-0.7-0.58-1.18-1.52-1.18-3.05 0-0.43 0.08-0.82 0.22-1.18 0.13-0.34 0.32-0.66 0.57-0.93-0.05-0.13-0.12-0.37-0.13-0.67-0.03-0.37 0.01-0.85 0.23-1.41l0.01-0.01s0.09-0.08 0.23-0.09c0.08 0 0.22 0 0.4 0.04 0.35 0.07 0.89 0.27 1.64 0.77 0.29-0.09 0.6-0.14 0.9-0.19 0.67-0.08 1.36-0.08 2.03 0 0.31 0.04 0.61 0.11 0.91 0.19 1.5-1 2.18-0.78 2.19-0.78 0 0 0.02 0 0.06 0.02 0.01 0.03 0.02 0.04 0.02 0.05 0.22 0.56 0.26 1.04 0.23 1.41-0.01 0.3-0.08 0.54-0.12 0.67 0.51 0.59 0.78 1.34 0.78 2.11 0 1.53-0.47 2.47-1.18 3.06-0.63 0.52-1.43 0.75-2.23 0.86 0.09 0.12 0.18 0.27 0.25 0.45 0.08 0.25 0.14 0.54 0.14 0.88 0 0.63 0 1.28-0.01 1.71v0.43c0 0.01 0 0.04 0.01 0.06 0.01 0.05 0.03 0.1 0.07 0.14 0.02 0.01 0.05 0.03 0.08 0.04h0.25c0.01 0.15 0.01 0.24 0.02 0.25-0.06 0.02-0.11 0.02-0.16 0.02s-0.1 0-0.14-0.02c-0.44 0-3.93 0.01-4.37 0.01-0.04 0.01-0.08 0.01-0.13 0.01s-0.1 0-0.16-0.02c0-0.01 0.01-0.1 0.02-0.25h0.24c0.04-0.01 0.06-0.03 0.09-0.05 0.04-0.03 0.06-0.08 0.07-0.13v-0.06-0.45z"/>
<path id="ac" d="m12.04 109.57c0-0.2 0-0.44-0.01-0.72-2.09 0.38-2.59-1.09-2.6-1.16-0.33-0.84-0.8-1.05-0.8-1.05l-0.01-0.01c-1.06-0.72 0.12-0.7 0.12-0.7h0.01c0.83 0.05 1.27 0.81 1.29 0.86 0.26 0.43 0.56 0.64 0.87 0.72 0.44 0.14 0.9 0 1.16-0.1 0.04-0.22 0.1-0.41 0.18-0.58 0.05-0.1 0.11-0.19 0.16-0.28-0.79-0.11-1.6-0.34-2.22-0.87-0.7-0.58-1.18-1.52-1.18-3.05 0-0.43 0.08-0.82 0.22-1.18 0.13-0.34 0.32-0.66 0.57-0.93-0.05-0.13-0.12-0.37-0.13-0.67-0.03-0.37 0.01-0.85 0.23-1.41l0.01-0.01s0.09-0.08 0.23-0.09c0.08 0 0.22 0 0.4 0.04 0.35 0.07 0.89 0.27 1.64 0.77 0.29-0.09 0.6-0.14 0.9-0.19 0.67-0.08 1.36-0.08 2.03 0 0.31 0.04 0.61 0.11 0.91 0.19 1.5-1 2.18-0.78 2.19-0.78 0 0 0.02 0 0.06 0.02 0.01 0.03 0.02 0.04 0.02 0.05 0.22 0.56 0.26 1.04 0.23 1.41-0.01 0.3-0.08 0.54-0.12 0.67 0.51 0.59 0.78 1.34 0.78 2.11 0 1.53-0.47 2.47-1.18 3.06-0.63 0.52-1.43 0.75-2.23 0.86 0.09 0.12 0.18 0.27 0.25 0.45 0.08 0.25 0.14 0.54 0.14 0.88 0 0.63 0 1.28-0.01 1.71v0.43c0 0.01 0 0.04 0.01 0.06 0.01 0.05 0.03 0.1 0.07 0.14 0.02 0.01 0.05 0.03 0.08 0.04h0.25c0.01 0.15 0.01 0.24 0.02 0.25-0.06 0.02-0.11 0.02-0.16 0.02s-0.1 0-0.14-0.02c-0.44 0-3.93 0.01-4.37 0.01-0.04 0.01-0.08 0.01-0.13 0.01s-0.1 0-0.16-0.02c0-0.01 0.01-0.1 0.02-0.25h0.24c0.04-0.01 0.06-0.03 0.09-0.05 0.04-0.03 0.06-0.08 0.07-0.13v-0.06-0.45z"/>
<path id="bo" d="m30 31v30h-30v-30h30z"/>
<path id="k" d="m30 31v30h-30v-30h30z"/>
<path id="av" d="m12.2 52.1v-6.34h-1.35v-1.83h1.35v-1.23c0-0.54 0.01-1.37 0.44-1.89 0.44-0.55 1.05-0.92 2.1-0.92 1.71 0 2.42 0.23 2.42 0.23-0.03 0.19-0.31 1.68-0.34 1.87 0 0-0.56-0.15-1.09-0.15s-1 0.18-1 0.67v1.43h2.16l-0.15 1.83h-2.01v6.33"/>
<path id="e" d="m12.2 52.1v-6.34h-1.35v-1.83h1.35v-1.23c0-0.54 0.01-1.37 0.44-1.89 0.44-0.55 1.05-0.92 2.1-0.92 1.71 0 2.42 0.23 2.42 0.23-0.03 0.19-0.31 1.68-0.34 1.87 0 0-0.56-0.15-1.09-0.15s-1 0.18-1 0.67v1.43h2.16l-0.15 1.83h-2.01v6.33"/>
<path id="bg" d="m12.03 21.75v-6.34h-1.35v-1.83h1.35v-1.23c0-0.54 0.01-1.37 0.44-1.89 0.44-0.55 1.05-0.92 2.1-0.92 1.71 0 2.42 0.23 2.42 0.23-0.03 0.19-0.31 1.68-0.34 1.87 0 0-0.56-0.15-1.09-0.15s-1 0.18-1 0.67v1.43h2.16l-0.15 1.83h-2.01v6.33"/>
<path id="ar" d="m12.03 21.75v-6.34h-1.35v-1.83h1.35v-1.23c0-0.54 0.01-1.37 0.44-1.89 0.44-0.55 1.05-0.92 2.1-0.92 1.71 0 2.42 0.23 2.42 0.23-0.03 0.19-0.31 1.68-0.34 1.87 0 0-0.56-0.15-1.09-0.15s-1 0.18-1 0.67v1.43h2.16l-0.15 1.83h-2.01v6.33"/>
<path id="ao" d="m12.35 309.3 0.28 0.09 0.26 0.12 0.26 0.15 0.24 0.16 0.23 0.19 0.4-0.2 0.42-0.18 0.21-0.06 0.22-0.05 0.22-0.02h0.22l0.23 0.05 0.23 0.09 0.18 0.16 0.13 0.19 0.08 0.23 0.04 0.23-0.02 0.24-0.08 0.23-0.12 0.2-0.19 0.16-0.19 0.1-0.18 0.04-0.18-0.03-0.17-0.07-0.17-0.09-0.17-0.11-0.17-0.1-0.17-0.08-0.18-0.05 0.05 0.32 0.04 0.32 0.02 0.32-0.01 0.33-0.03 0.32-0.07 0.31-0.11 0.3-0.15 0.29-0.2 0.26-0.29 0.3-0.32 0.24-0.36 0.2-0.37 0.15-0.39 0.11-0.41 0.07-0.41 0.04h-0.41l-0.4-0.03-0.18-0.01-0.16 0.06-0.15 0.1-0.12 0.15-0.08 0.16-0.04 0.17 0.03 0.15 0.1 0.13 0.17 0.08 0.39 0.05 0.39 0.03h0.78l0.39-0.01h0.4l0.39 0.01 0.39 0.03 0.38 0.05 0.31 0.08 0.31 0.12 0.29 0.14 0.27 0.18 0.25 0.21 0.22 0.23 0.19 0.26 0.15 0.28 0.11 0.31 0.08 0.34 0.01 0.34-0.04 0.33-0.08 0.33-0.13 0.31-0.17 0.3-0.2 0.28-0.24 0.25-0.26 0.22-0.48 0.29-0.5 0.24-0.53 0.19-0.54 0.14-0.55 0.09-0.56 0.06-0.57 0.01-0.56-0.02-0.55-0.06-0.2-0.04-0.19-0.04-0.19-0.03-0.19-0.05-0.19-0.04-0.19-0.06-0.18-0.07-0.18-0.09-0.17-0.1-0.17-0.12-0.15-0.13-0.14-0.15-0.12-0.16-0.1-0.18-0.08-0.18-0.05-0.19-0.02-0.2 0.02-0.2 0.05-0.26 0.1-0.24 0.13-0.22 0.17-0.2 0.19-0.18 0.2-0.17 0.22-0.15 0.23-0.14 0.23-0.12-0.09-0.07-0.11-0.09-0.13-0.1-0.14-0.12-0.14-0.13-0.12-0.15-0.1-0.15-0.07-0.17-0.03-0.18-0.03-0.3 0.03-0.28 0.09-0.27 0.13-0.25 0.16-0.24 0.2-0.22 0.22-0.19 0.24-0.17 0.25-0.15-0.04-0.08-0.07-0.09-0.1-0.1-0.11-0.1-0.12-0.1-0.24-0.22-0.09-0.12-0.07-0.12-0.15-0.27-0.12-0.28-0.09-0.3-0.06-0.3-0.03-0.31v-0.3l0.03-0.31 0.07-0.3 0.09-0.29 0.22-0.38 0.26-0.32 0.32-0.28 0.35-0.22 0.39-0.18 0.4-0.14 0.42-0.09 0.43-0.05 0.42-0.01h0.29l0.29 0.03 0.29 0.05 0.28 0.08zm-1.98 8.73-0.44 0.12-0.38 0.25-0.21 0.4v0.52l0.23 0.45 0.39 0.35 0.48 0.22 0.61 0.11 0.62 0.01 0.62-0.11 0.57-0.23 0.37-0.26 0.24-0.38 0.07-0.43-0.12-0.44-0.34-0.37-0.44-0.2-0.51-0.08-0.5-0.01h-0.39l-0.22 0.01-0.27 0.02-0.38 0.05zm-0.13-6.99-0.07 0.5-0.05 0.51 0.02 0.51 0.08 0.5 0.18 0.43 0.35 0.31 0.41 0.09 0.4-0.26 0.26-0.57 0.11-0.68 0.03-0.69v-0.58l-0.04-0.45-0.14-0.33-0.25-0.2-0.35-0.06-0.35 0.09-0.27 0.23-0.2 0.31-0.12 0.34z"/>
<path id="bm" d="m12.35 309.3 0.28 0.09 0.26 0.12 0.26 0.15 0.24 0.16 0.23 0.19 0.4-0.2 0.42-0.18 0.21-0.06 0.22-0.05 0.22-0.02h0.22l0.23 0.05 0.23 0.09 0.18 0.16 0.13 0.19 0.08 0.23 0.04 0.23-0.02 0.24-0.08 0.23-0.12 0.2-0.19 0.16-0.19 0.1-0.18 0.04-0.18-0.03-0.17-0.07-0.17-0.09-0.17-0.11-0.17-0.1-0.17-0.08-0.18-0.05 0.05 0.32 0.04 0.32 0.02 0.32-0.01 0.33-0.03 0.32-0.07 0.31-0.11 0.3-0.15 0.29-0.2 0.26-0.29 0.3-0.32 0.24-0.36 0.2-0.37 0.15-0.39 0.11-0.41 0.07-0.41 0.04h-0.41l-0.4-0.03-0.18-0.01-0.16 0.06-0.15 0.1-0.12 0.15-0.08 0.16-0.04 0.17 0.03 0.15 0.1 0.13 0.17 0.08 0.39 0.05 0.39 0.03h0.78l0.39-0.01h0.4l0.39 0.01 0.39 0.03 0.38 0.05 0.31 0.08 0.31 0.12 0.29 0.14 0.27 0.18 0.25 0.21 0.22 0.23 0.19 0.26 0.15 0.28 0.11 0.31 0.08 0.34 0.01 0.34-0.04 0.33-0.08 0.33-0.13 0.31-0.17 0.3-0.2 0.28-0.24 0.25-0.26 0.22-0.48 0.29-0.5 0.24-0.53 0.19-0.54 0.14-0.55 0.09-0.56 0.06-0.57 0.01-0.56-0.02-0.55-0.06-0.2-0.04-0.19-0.04-0.19-0.03-0.19-0.05-0.19-0.04-0.19-0.06-0.18-0.07-0.18-0.09-0.17-0.1-0.17-0.12-0.15-0.13-0.14-0.15-0.12-0.16-0.1-0.18-0.08-0.18-0.05-0.19-0.02-0.2 0.02-0.2 0.05-0.26 0.1-0.24 0.13-0.22 0.17-0.2 0.19-0.18 0.2-0.17 0.22-0.15 0.23-0.14 0.23-0.12-0.09-0.07-0.11-0.09-0.13-0.1-0.14-0.12-0.14-0.13-0.12-0.15-0.1-0.15-0.07-0.17-0.03-0.18-0.03-0.3 0.03-0.28 0.09-0.27 0.13-0.25 0.16-0.24 0.2-0.22 0.22-0.19 0.24-0.17 0.25-0.15-0.04-0.08-0.07-0.09-0.1-0.1-0.11-0.1-0.12-0.1-0.24-0.22-0.09-0.12-0.07-0.12-0.15-0.27-0.12-0.28-0.09-0.3-0.06-0.3-0.03-0.31v-0.3l0.03-0.31 0.07-0.3 0.09-0.29 0.22-0.38 0.26-0.32 0.32-0.28 0.35-0.22 0.39-0.18 0.4-0.14 0.42-0.09 0.43-0.05 0.42-0.01h0.29l0.29 0.03 0.29 0.05 0.28 0.08zm-1.98 8.73-0.44 0.12-0.38 0.25-0.21 0.4v0.52l0.23 0.45 0.39 0.35 0.48 0.22 0.61 0.11 0.62 0.01 0.62-0.11 0.57-0.23 0.37-0.26 0.24-0.38 0.07-0.43-0.12-0.44-0.34-0.37-0.44-0.2-0.51-0.08-0.5-0.01h-0.39l-0.22 0.01-0.27 0.02-0.38 0.05zm-0.13-6.99-0.07 0.5-0.05 0.51 0.02 0.51 0.08 0.5 0.18 0.43 0.35 0.31 0.41 0.09 0.4-0.26 0.26-0.57 0.11-0.68 0.03-0.69v-0.58l-0.04-0.45-0.14-0.33-0.25-0.2-0.35-0.06-0.35 0.09-0.27 0.23-0.2 0.31-0.12 0.34z"/>
<path id="o" d="m13.02 339.28 0.27 0.1 0.27 0.12 0.25 0.14 0.25 0.17 0.22 0.18 0.2-0.1 0.21-0.09 0.2-0.1 0.21-0.08 0.22-0.07 0.22-0.05 0.22-0.02 0.22 0.01 0.23 0.04 0.22 0.1 0.18 0.15 0.13 0.2 0.09 0.22 0.03 0.24-0.02 0.24-0.07 0.22-0.13 0.2-0.18 0.16-0.19 0.11-0.19 0.03-0.17-0.02-0.18-0.07-0.16-0.1-0.34-0.2-0.17-0.09-0.18-0.04 0.05 0.31 0.04 0.32 0.01 0.33v0.33l-0.04 0.32-0.07 0.31-0.1 0.3-0.16 0.28-0.19 0.27-0.29 0.29-0.33 0.25-0.35 0.19-0.38 0.16-0.39 0.11-0.4 0.07-0.41 0.03h-0.41l-0.41-0.02-0.17-0.01-0.17 0.05-0.15 0.11-0.12 0.14-0.08 0.17-0.03 0.16 0.03 0.16 0.09 0.12 0.18 0.09 0.39 0.05 0.39 0.02 0.39 0.01h0.39l0.39-0.01h0.78l0.39 0.03 0.39 0.06 0.31 0.08 0.3 0.11 0.29 0.15 0.28 0.18 0.24 0.2 0.23 0.24 0.19 0.25 0.15 0.29 0.11 0.3 0.07 0.34 0.02 0.34-0.04 0.34-0.09 0.33-0.13 0.31-0.17 0.3-0.2 0.27-0.23 0.25-0.26 0.22-0.48 0.3-0.51 0.24-0.52 0.19-0.54 0.14-0.56 0.09-0.56 0.05-0.56 0.01-0.56-0.02-0.56-0.05-0.76-0.16-0.19-0.05-0.19-0.06-0.18-0.07-0.18-0.08-0.18-0.1-0.16-0.12-0.15-0.14-0.14-0.15-0.12-0.16-0.1-0.17-0.08-0.18-0.05-0.19-0.02-0.2 0.01-0.2 0.06-0.26 0.09-0.24 0.14-0.22 0.16-0.21 0.19-0.18 0.21-0.16 0.22-0.15 0.22-0.14 0.23-0.12-0.08-0.07-0.11-0.09-0.13-0.1-0.14-0.12-0.14-0.14-0.12-0.14-0.11-0.16-0.07-0.17-0.03-0.17-0.02-0.3 0.03-0.28 0.08-0.27 0.13-0.26 0.17-0.24 0.2-0.21 0.22-0.2 0.24-0.17 0.24-0.14-0.04-0.09-0.07-0.09-0.09-0.09-0.12-0.1-0.24-0.22-0.11-0.11-0.1-0.12-0.07-0.12-0.14-0.27-0.12-0.28-0.09-0.29-0.06-0.3-0.03-0.31v-0.31l0.03-0.3 0.06-0.3 0.1-0.29 0.21-0.38 0.27-0.33 0.31-0.27 0.36-0.23 0.38-0.18 0.41-0.13 0.42-0.09 0.42-0.05 0.42-0.02 0.29 0.01 0.3 0.03 0.28 0.05 0.29 0.07zm-1.98 8.73-0.44 0.13-0.39 0.24-0.21 0.4 0.01 0.52 0.23 0.46 0.39 0.35 0.47 0.22 0.61 0.1 0.63 0.01 0.61-0.1 0.58-0.24 0.37-0.26 0.23-0.37 0.08-0.44-0.12-0.43-0.34-0.37-0.45-0.2-0.5-0.09h-0.5l-0.2-0.01h-0.2l-0.21 0.01-0.27 0.02-0.38 0.05zm-0.13-6.99-0.08 0.5-0.04 0.51 0.01 0.51 0.09 0.5 0.18 0.43 0.34 0.32 0.42 0.08 0.39-0.26 0.26-0.56 0.12-0.68 0.03-0.69v-0.59l-0.05-0.44-0.14-0.33-0.24-0.2-0.35-0.06-0.35 0.09-0.27 0.23-0.2 0.31-0.12 0.33z"/>
<path id="an" d="m13.02 339.28 0.27 0.1 0.27 0.12 0.25 0.14 0.25 0.17 0.22 0.18 0.2-0.1 0.21-0.09 0.2-0.1 0.21-0.08 0.22-0.07 0.22-0.05 0.22-0.02 0.22 0.01 0.23 0.04 0.22 0.1 0.18 0.15 0.13 0.2 0.09 0.22 0.03 0.24-0.02 0.24-0.07 0.22-0.13 0.2-0.18 0.16-0.19 0.11-0.19 0.03-0.17-0.02-0.18-0.07-0.16-0.1-0.34-0.2-0.17-0.09-0.18-0.04 0.05 0.31 0.04 0.32 0.01 0.33v0.33l-0.04 0.32-0.07 0.31-0.1 0.3-0.16 0.28-0.19 0.27-0.29 0.29-0.33 0.25-0.35 0.19-0.38 0.16-0.39 0.11-0.4 0.07-0.41 0.03h-0.41l-0.41-0.02-0.17-0.01-0.17 0.05-0.15 0.11-0.12 0.14-0.08 0.17-0.03 0.16 0.03 0.16 0.09 0.12 0.18 0.09 0.39 0.05 0.39 0.02 0.39 0.01h0.39l0.39-0.01h0.78l0.39 0.03 0.39 0.06 0.31 0.08 0.3 0.11 0.29 0.15 0.28 0.18 0.24 0.2 0.23 0.24 0.19 0.25 0.15 0.29 0.11 0.3 0.07 0.34 0.02 0.34-0.04 0.34-0.09 0.33-0.13 0.31-0.17 0.3-0.2 0.27-0.23 0.25-0.26 0.22-0.48 0.3-0.51 0.24-0.52 0.19-0.54 0.14-0.56 0.09-0.56 0.05-0.56 0.01-0.56-0.02-0.56-0.05-0.76-0.16-0.19-0.05-0.19-0.06-0.18-0.07-0.18-0.08-0.18-0.1-0.16-0.12-0.15-0.14-0.14-0.15-0.12-0.16-0.1-0.17-0.08-0.18-0.05-0.19-0.02-0.2 0.01-0.2 0.06-0.26 0.09-0.24 0.14-0.22 0.16-0.21 0.19-0.18 0.21-0.16 0.22-0.15 0.22-0.14 0.23-0.12-0.08-0.07-0.11-0.09-0.13-0.1-0.14-0.12-0.14-0.14-0.12-0.14-0.11-0.16-0.07-0.17-0.03-0.17-0.02-0.3 0.03-0.28 0.08-0.27 0.13-0.26 0.17-0.24 0.2-0.21 0.22-0.2 0.24-0.17 0.24-0.14-0.04-0.09-0.07-0.09-0.09-0.09-0.12-0.1-0.24-0.22-0.11-0.11-0.1-0.12-0.07-0.12-0.14-0.27-0.12-0.28-0.09-0.29-0.06-0.3-0.03-0.31v-0.31l0.03-0.3 0.06-0.3 0.1-0.29 0.21-0.38 0.27-0.33 0.31-0.27 0.36-0.23 0.38-0.18 0.41-0.13 0.42-0.09 0.42-0.05 0.42-0.02 0.29 0.01 0.3 0.03 0.28 0.05 0.29 0.07zm-1.98 8.73-0.44 0.13-0.39 0.24-0.21 0.4 0.01 0.52 0.23 0.46 0.39 0.35 0.47 0.22 0.61 0.1 0.63 0.01 0.61-0.1 0.58-0.24 0.37-0.26 0.23-0.37 0.08-0.44-0.12-0.43-0.34-0.37-0.45-0.2-0.5-0.09h-0.5l-0.2-0.01h-0.2l-0.21 0.01-0.27 0.02-0.38 0.05zm-0.13-6.99-0.08 0.5-0.04 0.51 0.01 0.51 0.09 0.5 0.18 0.43 0.34 0.32 0.42 0.08 0.39-0.26 0.26-0.56 0.12-0.68 0.03-0.69v-0.59l-0.05-0.44-0.14-0.33-0.24-0.2-0.35-0.06-0.35 0.09-0.27 0.23-0.2 0.31-0.12 0.33z"/>
<path id="bb" d="m0 368.94v12.12c0 4.93 4.01 8.94 8.94 8.94h12.12c4.93 0 8.94-4.01 8.94-8.94v-12.12c0-4.93-4.01-8.94-8.94-8.94h-12.12c-4.93 0-8.94 4.01-8.94 8.94zm8.94 18.04c-3.27 0-5.92-2.65-5.92-5.92v-12.12c0-3.27 2.65-5.92 5.92-5.92h12.12c3.27 0 5.92 2.65 5.92 5.92v12.12c-1.76 3.95-3.74 5.92-5.92 5.92h-12.12z"/>
<linearGradient id="f" x1="15" x2="15" y1="389.91" y2="360.23" gradientUnits="userSpaceOnUse">
<stop stop-color="#e09b3d" offset="0"/>
<stop stop-color="#c74c4d" offset=".3"/>
<stop stop-color="#c21975" offset=".6"/>
<stop stop-color="#7024c4" offset="1"/>
</linearGradient>
<path id="p" d="m0 368.94v12.12c0 4.93 4.01 8.94 8.94 8.94h12.12c4.93 0 8.94-4.01 8.94-8.94v-12.12c0-4.93-4.01-8.94-8.94-8.94h-12.12c-4.93 0-8.94 4.01-8.94 8.94zm8.94 18.04c-3.27 0-5.92-2.65-5.92-5.92v-12.12c0-3.27 2.65-5.92 5.92-5.92h12.12c3.27 0 5.92 2.65 5.92 5.92v12.12c-1.76 3.95-3.74 5.92-5.92 5.92h-12.12z"/>
<path id="m" d="m15 382.76c4.28 0 7.76-3.48 7.76-7.76s-3.48-7.76-7.76-7.76-7.76 3.48-7.76 7.76 3.48 7.76 7.76 7.76zm0-12.5c2.62 0 4.74 2.12 4.74 4.74s-2.12 4.74-4.74 4.74-4.74-2.12-4.74-4.74 2.12-4.74 4.74-4.74z"/>
<path id="j" d="m15 382.76c4.28 0 7.76-3.48 7.76-7.76s-3.48-7.76-7.76-7.76-7.76 3.48-7.76 7.76 3.48 7.76 7.76 7.76zm0-12.5c2.62 0 4.74 2.12 4.74 4.74s-2.12 4.74-4.74 4.74-4.74-2.12-4.74-4.74 2.12-4.74 4.74-4.74z"/>
<path id="au" d="m20.91 367.3c0 1.03 0.84 1.86 1.86 1.86 1.03 0 1.86-0.83 1.86-1.86s-0.83-1.86-1.86-1.86c-1.02 0-1.86 0.83-1.86 1.86z"/>
<linearGradient id="bt" x1="22.77" x2="22.77" y1="389.91" y2="360.23" gradientUnits="userSpaceOnUse">
<stop stop-color="#e09b3d" offset="0"/>
<stop stop-color="#c74c4d" offset=".3"/>
<stop stop-color="#c21975" offset=".6"/>
<stop stop-color="#7024c4" offset="1"/>
</linearGradient>
<path id="n" d="m20.91 367.3c0 1.03 0.84 1.86 1.86 1.86 1.03 0 1.86-0.83 1.86-1.86s-0.83-1.86-1.86-1.86c-1.02 0-1.86 0.83-1.86 1.86z"/>
</defs>
<use fill="#000000" xlink:href="#ae"/>
<use fill-opacity="0" stroke="#000000" stroke-opacity="0" xlink:href="#ae"/>
<use fill="#000000" fill-opacity="0" xlink:href="#az"/>
<use fill-opacity="0" stroke="#000000" stroke-opacity="0" xlink:href="#az"/>
<use fill="#dc4e41" xlink:href="#ap"/>
<use fill-opacity="0" stroke="#000000" stroke-opacity="0" xlink:href="#ap"/>
<use fill="#000000" fill-opacity="0" xlink:href="#h"/>
<use fill-opacity="0" stroke="#000000" stroke-opacity="0" xlink:href="#h"/>
<use fill="#000000" fill-opacity="0" xlink:href="#aw"/>
<use fill-opacity="0" stroke="#000000" stroke-opacity="0" xlink:href="#aw"/>
<use fill="#000000" fill-opacity="0" xlink:href="#aj"/>
<use fill-opacity="0" stroke="#000000" stroke-opacity="0" xlink:href="#aj"/>
<use fill="#ffffff" xlink:href="#t"/>
<use fill-opacity="0" stroke="#000000" stroke-opacity="0" xlink:href="#t"/>
<use fill="#000000" fill-opacity="0" xlink:href="#q"/>
<use fill-opacity="0" stroke="#000000" stroke-opacity="0" xlink:href="#q"/>
<use fill="#000000" xlink:href="#af"/>
<use fill-opacity="0" stroke="#000000" stroke-opacity="0" xlink:href="#af"/>
<use fill="#000000" fill-opacity="0" xlink:href="#w"/>
<use fill-opacity="0" stroke="#000000" stroke-opacity="0" xlink:href="#w"/>
<use fill="#000000" xlink:href="#b"/>
<use fill-opacity="0" stroke="#000000" stroke-opacity="0" xlink:href="#b"/>
<use fill="#000000" fill-opacity="0" xlink:href="#bf"/>
<use fill-opacity="0" stroke="#000000" stroke-opacity="0" xlink:href="#bf"/>
<use fill="#000000" xlink:href="#be"/>
<use fill-opacity="0" stroke="#000000" stroke-opacity="0" xlink:href="#be"/>
<use fill="#000000" fill-opacity="0" xlink:href="#bj"/>
<use fill-opacity="0" stroke="#000000" stroke-opacity="0" xlink:href="#bj"/>
<use fill="#0378b5" xlink:href="#at"/>
<use fill-opacity="0" stroke="#000000" stroke-opacity="0" xlink:href="#at"/>
<use fill="#000000" fill-opacity="0" xlink:href="#bk"/>
<use fill-opacity="0" stroke="#000000" stroke-opacity="0" xlink:href="#bk"/>
<use fill="#000000" fill-opacity="0" xlink:href="#ab"/>
<use fill-opacity="0" stroke="#000000" stroke-opacity="0" xlink:href="#ab"/>
<use fill="#000000" fill-opacity="0" xlink:href="#v"/>
<use fill-opacity="0" stroke="#000000" stroke-opacity="0" xlink:href="#v"/>
<use fill="#ffffff" xlink:href="#i"/>
<use fill-opacity="0" stroke="#000000" stroke-opacity="0" xlink:href="#i"/>
<use fill="#000000" fill-opacity="0" xlink:href="#ag"/>
<use fill-opacity="0" stroke="#000000" stroke-opacity="0" xlink:href="#ag"/>
<use fill="#ffffff" xlink:href="#s"/>
<use fill-opacity="0" stroke="#000000" stroke-opacity="0" xlink:href="#s"/>
<use fill="#000000" fill-opacity="0" xlink:href="#br"/>
<use fill-opacity="0" stroke="#000000" stroke-opacity="0" xlink:href="#br"/>
<use fill="#ffffff" xlink:href="#bc"/>
<use fill-opacity="0" stroke="#000000" stroke-opacity="0" xlink:href="#bc"/>
<use fill="#000000" fill-opacity="0" xlink:href="#ax"/>
<use fill-opacity="0" stroke="#000000" stroke-opacity="0" xlink:href="#ax"/>
<use fill="#55acee" xlink:href="#ak"/>
<use fill-opacity="0" stroke="#000000" stroke-opacity="0" xlink:href="#ak"/>
<use fill="#000000" fill-opacity="0" xlink:href="#r"/>
<use fill-opacity="0" stroke="#000000" stroke-opacity="0" xlink:href="#r"/>
<use fill="#ffffff" xlink:href="#bl"/>
<use fill-opacity="0" stroke="#000000" stroke-opacity="0" xlink:href="#bl"/>
<use fill="#000000" fill-opacity="0" xlink:href="#bi"/>
<use fill-opacity="0" stroke="#000000" stroke-opacity="0" xlink:href="#bi"/>
<use fill="#000000" xlink:href="#a"/>
<use fill-opacity="0" stroke="#000000" stroke-opacity="0" xlink:href="#a"/>
<use fill="#000000" fill-opacity="0" xlink:href="#ay"/>
<use fill-opacity="0" stroke="#000000" stroke-opacity="0" xlink:href="#ay"/>
<use fill="#000000" xlink:href="#aq"/>
<use fill-opacity="0" stroke="#000000" stroke-opacity="0" xlink:href="#aq"/>
<use fill="#000000" fill-opacity="0" xlink:href="#al"/>
<use fill-opacity="0" stroke="#000000" stroke-opacity="0" xlink:href="#al"/>
<use fill="#000000" xlink:href="#am"/>
<use fill-opacity="0" stroke="#000000" stroke-opacity="0" xlink:href="#am"/>
<use fill="#000000" fill-opacity="0" xlink:href="#ah"/>
<use fill-opacity="0" stroke="#000000" stroke-opacity="0" xlink:href="#ah"/>
<use fill="#000000" xlink:href="#ad"/>
<use fill-opacity="0" stroke="#000000" stroke-opacity="0" xlink:href="#ad"/>
<use fill="#000000" fill-opacity="0" xlink:href="#g"/>
<use fill-opacity="0" stroke="#000000" stroke-opacity="0" xlink:href="#g"/>
<use fill="#000000" xlink:href="#bq"/>
<use fill-opacity="0" stroke="#000000" stroke-opacity="0" xlink:href="#bq"/>
<use fill="#000000" fill-opacity="0" xlink:href="#y"/>
<use fill-opacity="0" stroke="#000000" stroke-opacity="0" xlink:href="#y"/>
<use fill="#f38b00" xlink:href="#ba"/>
<use fill-opacity="0" stroke="#000000" stroke-opacity="0" xlink:href="#ba"/>
<use fill="#000000" fill-opacity="0" xlink:href="#l"/>
<use fill-opacity="0" stroke="#000000" stroke-opacity="0" xlink:href="#l"/>
<use fill="#ffffff" xlink:href="#bs"/>
<use fill-opacity="0" stroke="#000000" stroke-opacity="0" xlink:href="#bs"/>
<use fill="#000000" fill-opacity="0" xlink:href="#bn"/>
<use fill-opacity="0" stroke="#000000" stroke-opacity="0" xlink:href="#bn"/>
<use fill="#ffffff" xlink:href="#z"/>
<use fill-opacity="0" stroke="#000000" stroke-opacity="0" xlink:href="#z"/>
<use fill="#000000" fill-opacity="0" xlink:href="#c"/>
<use fill-opacity="0" stroke="#000000" stroke-opacity="0" xlink:href="#c"/>
<use fill="#ffffff" xlink:href="#bp"/>
<use fill-opacity="0" stroke="#000000" stroke-opacity="0" xlink:href="#bp"/>
<use fill="#000000" fill-opacity="0" xlink:href="#aa"/>
<use fill-opacity="0" stroke="#000000" stroke-opacity="0" xlink:href="#aa"/>
<use fill="#ffffff" xlink:href="#bd"/>
<use fill-opacity="0" stroke="#000000" stroke-opacity="0" xlink:href="#bd"/>
<use fill="#000000" fill-opacity="0" xlink:href="#u"/>
<use fill-opacity="0" stroke="#000000" stroke-opacity="0" xlink:href="#u"/>
<use fill="#424242" xlink:href="#bh"/>
<use fill-opacity="0" stroke="#000000" stroke-opacity="0" xlink:href="#bh"/>
<use fill="#000000" fill-opacity="0" xlink:href="#d"/>
<use fill-opacity="0" stroke="#000000" stroke-opacity="0" xlink:href="#d"/>
<use fill="#424242" xlink:href="#ai"/>
<use fill-opacity="0" stroke="#000000" stroke-opacity="0" xlink:href="#ai"/>
<use fill="#000000" fill-opacity="0" xlink:href="#as"/>
<use fill-opacity="0" stroke="#000000" stroke-opacity="0" xlink:href="#as"/>
<use fill="#ffffff" xlink:href="#x"/>
<use fill-opacity="0" stroke="#000000" stroke-opacity="0" xlink:href="#x"/>
<use fill="#000000" fill-opacity="0" xlink:href="#ac"/>
<use fill-opacity="0" stroke="#000000" stroke-opacity="0" xlink:href="#ac"/>
<use fill="#3d5193" xlink:href="#bo"/>
<use fill-opacity="0" stroke="#000000" stroke-opacity="0" xlink:href="#bo"/>
<use fill="#000000" fill-opacity="0" xlink:href="#k"/>
<use fill-opacity="0" stroke="#000000" stroke-opacity="0" xlink:href="#k"/>
<use fill="#ffffff" xlink:href="#av"/>
<use fill-opacity="0" stroke="#000000" stroke-opacity="0" xlink:href="#av"/>
<use fill="#000000" fill-opacity="0" xlink:href="#e"/>
<use fill-opacity="0" stroke="#000000" stroke-opacity="0" xlink:href="#e"/>
<use fill="#000000" xlink:href="#bg"/>
<use fill-opacity="0" stroke="#000000" stroke-opacity="0" xlink:href="#bg"/>
<use fill="#000000" fill-opacity="0" xlink:href="#ar"/>
<use fill-opacity="0" stroke="#000000" stroke-opacity="0" xlink:href="#ar"/>
<use fill="#000000" xlink:href="#ao"/>
<use fill-opacity="0" stroke="#000000" stroke-opacity="0" xlink:href="#ao"/>
<use fill="#000000" fill-opacity="0" xlink:href="#bm"/>
<use fill-opacity="0" stroke="#000000" stroke-opacity="0" xlink:href="#bm"/>
<use fill="#fff7f7" xlink:href="#o"/>
<use fill-opacity="0" stroke="#000000" stroke-opacity="0" xlink:href="#o"/>
<use fill="#000000" fill-opacity="0" xlink:href="#an"/>
<use fill-opacity="0" stroke="#000000" stroke-opacity="0" xlink:href="#an"/>
<use fill="url(#f)" xlink:href="#bb"/>
<use fill-opacity="0" stroke="#000000" stroke-opacity="0" xlink:href="#bb"/>
<use fill="#000000" fill-opacity="0" xlink:href="#p"/>
<use fill-opacity="0" stroke="#000000" stroke-opacity="0" xlink:href="#p"/>
<use fill="url(#f)" xlink:href="#m"/>
<use fill-opacity="0" stroke="#000000" stroke-opacity="0" xlink:href="#m"/>
<use fill="#000000" fill-opacity="0" xlink:href="#j"/>
<use fill-opacity="0" stroke="#000000" stroke-opacity="0" xlink:href="#j"/>
<use fill="url(#bt)" xlink:href="#au"/>
<use fill-opacity="0" stroke="#000000" stroke-opacity="0" xlink:href="#au"/>
<use fill="#000000" fill-opacity="0" xlink:href="#n"/>
<use fill-opacity="0" stroke="#000000" stroke-opacity="0" xlink:href="#n"/>
</svg>
