<?xml version="1.0" encoding="UTF-8"?>
<!DOCTYPE svg  PUBLIC '-//W3C//DTD SVG 1.1//EN'  'http://www.w3.org/Graphics/SVG/1.1/DTD/svg11.dtd'>
<svg version="1.1" viewBox="0 0 640 640" xmlns="http://www.w3.org/2000/svg" xmlns:xlink="http://www.w3.org/1999/xlink">
<defs>
<path id="ai" d="m21.18 316.97v-1.02-0.52c0-0.1 0.06-0.06 0.17-0.06h1.34c0.13 0 0.28 0.02 0.4-0.06 0.18-0.12 0.16-0.31 0.16-0.49 0-0.29 0.13-0.95-0.16-1.13-0.26-0.17-0.82-0.06-1.11-0.06-0.14 0-0.8 0.07-0.8-0.07v-1.22c0-0.34 0-0.67-0.45-0.67h-0.64c-0.16 0-0.37-0.03-0.53 0.03-0.35 0.14-0.23 0.74-0.23 1.01 0 0.08 0.02 0.92 0 0.92h-1.18c-0.33 0-0.87-0.09-0.87 0.36v1.03c0 0.45 0.61 0.35 0.91 0.35 0.1 0 1.14-0.01 1.14 0.01v1.28c0 0.13-0.02 0.32 0.04 0.45 0.1 0.23 0.35 0.22 0.56 0.22 0.33 0 1.25 0.16 1.25-0.36"/>
<path id="p" d="m0 330.05h30v30h-30v-30z"/>
<path id="d" d="m0 330.05h30v30h-30v-30z"/>
<path id="am" d="m22.33 346.85v-1.02-0.51c0-0.1 0.06-0.06 0.17-0.06h1.33c0.13 0 0.29 0.02 0.41-0.06 0.18-0.12 0.15-0.31 0.15-0.49 0-0.29 0.14-0.95-0.15-1.13-0.27-0.17-0.83-0.06-1.12-0.06-0.13 0-0.79 0.07-0.79-0.07v-1.22c0-0.33 0-0.67-0.46-0.67h-0.64c-0.15 0-0.37-0.02-0.52 0.04-0.35 0.13-0.23 0.73-0.23 1.01 0 0.07 0.01 0.91 0 0.91h-1.19c-0.33 0-0.87-0.09-0.87 0.36v1.03c0 0.44 0.62 0.35 0.92 0.35 0.09 0 1.14-0.01 1.14 0.01v1.27c0 0.13-0.03 0.33 0.03 0.46 0.1 0.23 0.35 0.21 0.57 0.21 0.32 0 1.25 0.16 1.25-0.36"/>
<path id="w" d="m20.16 252.96c0.11 0.28 0.19 0.55 0.24 0.84 0.04 0.25 0.09 0.5 0.09 0.76 0 1.75 0 3.51 0.01 5.26 0 0.09-0.03 0.12-0.11 0.12-0.81 0-1.61-0.01-2.41 0-0.12 0-0.13-0.05-0.13-0.14v-4.6c0-0.29-0.02-0.58-0.11-0.84-0.13-0.45-0.41-0.78-0.87-0.95-0.38-0.14-0.77-0.16-1.17-0.06-0.43 0.11-0.74 0.39-0.95 0.78-0.13 0.22-0.17 0.44-0.2 0.69-0.01 0.19-0.02 0.37-0.02 0.56v4.41c0 0.12-0.04 0.15-0.15 0.15-0.78-0.01-1.56-0.01-2.34 0-0.14 0-0.15-0.05-0.15-0.17v-8.13c0-0.32 0-0.32 0.32-0.32h2.19c0.1 0 0.13 0.03 0.13 0.13-0.01 0.32-0.01 0.64-0.01 1 0.18-0.22 0.3-0.42 0.48-0.59 0.32-0.33 0.68-0.56 1.11-0.7 0.48-0.17 0.98-0.19 1.46-0.14 0.79 0.07 1.48 0.38 2.02 0.98 0.25 0.28 0.44 0.61 0.57 0.96z"/>
<path id="e" d="m10.24 259.78c0 0.12-0.03 0.17-0.16 0.16h-2.37c-0.11 0-0.14-0.03-0.14-0.14v-4.13-4.13c0-0.11 0.03-0.15 0.15-0.15h2.37c0.1 0.03 0.15 0.08 0.15 0.15-0.01 2.75-0.01 5.5 0 8.24z"/>
<path id="k" d="m10.23 248.36c0 0.76-0.55 1.34-1.38 1.34-0.8 0-1.35-0.56-1.35-1.35-0.01-0.75 0.54-1.37 1.37-1.34 0.85-0.03 1.35 0.61 1.36 1.35z"/>
<path id="h" d="m0 270.3h30v30h-30v-30z"/>
<path id="aa" d="m0 270.3h30v30h-30v-30z"/>
<path id="y" d="m20.76 283.66c0.04 0.25 0.09 0.5 0.09 0.76 0 1.75 0 3.51 0.01 5.26 0 0.09-0.03 0.12-0.11 0.12-0.81 0-1.61-0.01-2.41 0-0.12 0-0.13-0.05-0.13-0.14v-4.6c0-0.29-0.02-0.58-0.11-0.84-0.13-0.45-0.41-0.78-0.87-0.95-0.38-0.14-0.77-0.16-1.17-0.06-0.43 0.11-0.74 0.39-0.95 0.78-0.13 0.22-0.17 0.44-0.2 0.69-0.01 0.19-0.02 0.37-0.02 0.56v4.41c0 0.12-0.04 0.15-0.15 0.15-0.78-0.01-1.56-0.01-2.34 0-0.14 0-0.15-0.05-0.15-0.17v-8.13c0-0.32 0-0.32 0.32-0.32h2.19c0.1 0 0.13 0.03 0.13 0.13-0.01 0.32-0.01 0.64-0.01 1 0.18-0.22 0.3-0.42 0.48-0.59 0.32-0.33 0.68-0.56 1.11-0.7 0.48-0.17 0.98-0.19 1.46-0.14 0.79 0.07 1.48 0.38 2.02 0.98 0.25 0.28 0.44 0.61 0.57 0.96 0.11 0.28 0.19 0.55 0.24 0.84z"/>
<path id="g" d="m10.43 280.86h-2.37c-0.11 0-0.14 0.03-0.14 0.14v8.26c0 0.11 0.03 0.15 0.15 0.15h2.37c0.1-0.03 0.15-0.08 0.15-0.15-0.01-2.75-0.01-5.5 0-8.24 0-0.12-0.03-0.17-0.16-0.16z"/>
<path id="af" d="m9.21 279.55c-0.8 0-1.35-0.56-1.35-1.35-0.01-0.75 0.54-1.37 1.37-1.34 0.85-0.03 1.35 0.61 1.36 1.35 0 0.76-0.55 1.34-1.38 1.34z"/>
<path id="q" d="m30 210.84v30h-30v-30h30z"/>
<path id="ac" d="m8.23 227.21c0.27 0 0.56-0.03 0.84-0.1-1.44-0.3-2.48-1.57-2.48-3.04v-0.03c0.43 0.22 0.89 0.38 1.4 0.38-0.85-0.57-1.37-1.52-1.37-2.55 0-0.57 0.16-1.05 0.43-1.5 1.5 1.84 3.76 3.01 6.32 3.16-0.06-0.21-0.06-0.48-0.06-0.73 0-1.68 1.37-3.08 3.1-3.08 0.88 0 1.68 0.37 2.26 0.97 0.68-0.14 1.34-0.39 1.93-0.75-0.22 0.72-0.73 1.31-1.37 1.71 0.64-0.07 1.21-0.24 1.77-0.48-0.39 0.63-0.91 1.18-1.51 1.61v0.4c0 4.08-3.08 8.78-8.76 8.78-1.75 0-3.39-0.37-4.73-1.27 0.24 0.03 0.49 0.06 0.72 0.06 1.46 0 2.81-0.62 3.83-1.45-1.32-0.02-2.48-0.89-2.88-2.15 0.19 0.03 0.37 0.06 0.56 0.06z"/>
<path id="ae" d="m7.67 196.8c0.19 0.03 0.37 0.06 0.56 0.06 0.27 0 0.56-0.03 0.84-0.1-1.44-0.3-2.48-1.57-2.48-3.04v-0.03c0.43 0.22 0.89 0.38 1.4 0.38-0.85-0.57-1.37-1.52-1.37-2.55 0-0.57 0.16-1.05 0.43-1.5 1.5 1.84 3.76 3.01 6.32 3.16-0.06-0.21-0.06-0.48-0.06-0.73 0-1.68 1.37-3.08 3.1-3.08 0.88 0 1.68 0.37 2.26 0.97 0.68-0.14 1.34-0.39 1.93-0.75-0.22 0.72-0.73 1.31-1.37 1.71 0.64-0.07 1.21-0.24 1.77-0.48-0.39 0.63-0.91 1.18-1.51 1.61v0.4c0 4.08-3.08 8.78-8.76 8.78-1.75 0-3.39-0.37-4.73-1.27 0.24 0.03 0.49 0.06 0.72 0.06 1.46 0 2.81-0.62 3.83-1.45-1.32-0.02-2.48-0.89-2.88-2.15z"/>
<path id="an" d="m21.69 140.18c0 0.36-0.3 0.65-0.66 0.65-0.45-0.19-0.66-0.41-0.66-0.65 0-7.04-5.73-12.78-12.78-12.78-0.36 0-0.66-0.3-0.66-0.66s0.3-0.66 0.66-0.66c7.78 0 14.1 6.33 14.1 14.1z"/>
<path id="ad" d="m17.5 139.93c0 0.36-0.3 0.66-0.67 0.66-0.44-0.2-0.65-0.42-0.65-0.66 0-4.87-3.97-8.83-8.84-8.83-0.36 0-0.65-0.29-0.65-0.65 0-0.37 0.29-0.67 0.65-0.67 5.6 0 10.16 4.56 10.16 10.15z"/>
<path id="i" d="m13.34 139.93c0 0.36-0.3 0.66-0.67 0.66-0.43-0.2-0.65-0.42-0.65-0.66 0-2.57-2.1-4.67-4.68-4.67-0.36 0-0.65-0.3-0.65-0.66 0-0.37 0.29-0.66 0.65-0.66 3.31 0 6 2.69 6 5.99z"/>
<path id="a" d="m6.99 138.78c0 0.66 0.53 1.19 1.19 1.19s1.19-0.53 1.19-1.19c0-0.65-0.53-1.19-1.19-1.19-0.79 0.35-1.19 0.75-1.19 1.19z"/>
<path id="aj" d="m0.03 150.66h30v30h-30v-30z"/>
<path id="m" d="m20.25 172.44c-0.45-0.19-0.67-0.42-0.67-0.66 0-7.16-5.83-12.99-12.99-12.99-0.37 0-0.67-0.3-0.67-0.67 0-0.38 0.3-0.68 0.67-0.68 7.9 0 14.33 6.44 14.33 14.34 0 0.36-0.3 0.66-0.67 0.66z"/>
<path id="ah" d="m16.23 172.44c-0.45-0.19-0.66-0.42-0.66-0.66 0-4.95-4.03-8.98-8.98-8.98-0.38 0-0.67-0.3-0.67-0.67s0.29-0.67 0.67-0.67c5.69 0 10.32 4.63 10.32 10.32 0 0.36-0.3 0.66-0.68 0.66z"/>
<path id="al" d="m12.01 172.44c-0.45-0.19-0.67-0.42-0.67-0.66-0.01-2.62-2.13-4.74-4.75-4.75-0.38 0-0.67-0.3-0.67-0.67s0.29-0.67 0.67-0.67c3.35 0 6.09 2.73 6.09 6.09 0 0.36-0.3 0.66-0.67 0.66z"/>
<path id="u" d="m7.44 171.81c0.67 0.03 1.23-0.49 1.25-1.16 0.03-0.66-0.49-1.22-1.15-1.25h-0.1c-0.81 0.35-1.21 0.76-1.21 1.21 0 0.66 0.54 1.2 1.21 1.2z"/>
<path id="v" d="m11.36 80.73v-0.06-0.45c0-0.2 0-0.44-0.01-0.72-2.09 0.38-2.59-1.09-2.6-1.16-0.33-0.84-0.8-1.05-0.8-1.05l-0.01-0.01c-1.06-0.72 0.12-0.7 0.12-0.7h0.01c0.83 0.05 1.26 0.81 1.29 0.86 0.26 0.43 0.56 0.64 0.87 0.72 0.44 0.14 0.9 0 1.16-0.1 0.04-0.22 0.1-0.41 0.18-0.58 0.05-0.1 0.1-0.19 0.16-0.28-0.79-0.11-1.6-0.34-2.22-0.87-0.7-0.58-1.18-1.52-1.18-3.05 0-0.43 0.08-0.82 0.22-1.18 0.13-0.34 0.32-0.66 0.57-0.93-0.05-0.13-0.12-0.37-0.13-0.67-0.03-0.37 0.01-0.85 0.23-1.41l0.01-0.01s0.09-0.08 0.23-0.09c0.08 0 0.22 0 0.4 0.04 0.35 0.07 0.89 0.27 1.64 0.77 0.29-0.09 0.6-0.14 0.9-0.19 0.67-0.08 1.36-0.08 2.03 0 0.3 0.05 0.61 0.1 0.91 0.19 1.49-1 2.18-0.78 2.19-0.78 0 0 0.02 0 0.06 0.02 0.01 0.03 0.02 0.04 0.02 0.05 0.22 0.56 0.26 1.04 0.23 1.41-0.01 0.3-0.08 0.54-0.12 0.67 0.51 0.59 0.78 1.34 0.78 2.11 0 1.53-0.47 2.47-1.18 3.06-0.63 0.52-1.43 0.75-2.23 0.86 0.09 0.12 0.18 0.27 0.25 0.45 0.08 0.25 0.14 0.54 0.14 0.88 0 0.63 0 1.28-0.01 1.71v0.43c0 0.01 0 0.04 0.01 0.06 0.01 0.05 0.03 0.1 0.06 0.14 0.03 0.01 0.05 0.03 0.09 0.04h0.25c0.01 0.15 0.01 0.24 0.02 0.25-0.06 0.02-0.12 0.02-0.17 0.02-0.04 0-0.09 0-0.14-0.02-0.43 0-3.92 0.01-4.36 0.01-0.04 0.01-0.08 0.01-0.13 0.01s-0.1 0-0.16-0.02c0-0.01 0.01-0.1 0.02-0.25h0.24c0.04-0.02 0.07-0.04 0.09-0.05 0.04-0.03 0.06-0.08 0.07-0.13z"/>
<path id="z" d="m0 90.71h30v30h-30v-30z"/>
<path id="n" d="m12.04 110.02v-0.45c0-0.2 0-0.44-0.01-0.72-2.09 0.38-2.59-1.09-2.6-1.16-0.33-0.84-0.8-1.05-0.8-1.05l-0.01-0.01c-1.06-0.72 0.12-0.7 0.12-0.7h0.01c0.83 0.05 1.27 0.81 1.29 0.86 0.26 0.43 0.56 0.64 0.87 0.72 0.44 0.14 0.9 0 1.16-0.1 0.04-0.22 0.1-0.41 0.18-0.58 0.05-0.1 0.11-0.19 0.16-0.28-0.79-0.11-1.6-0.34-2.22-0.87-0.7-0.58-1.18-1.52-1.18-3.05 0-0.43 0.08-0.82 0.22-1.18 0.13-0.34 0.32-0.66 0.57-0.93-0.05-0.13-0.12-0.37-0.13-0.67-0.03-0.37 0.01-0.85 0.23-1.41l0.01-0.01s0.09-0.08 0.23-0.09c0.08 0 0.22 0 0.4 0.04 0.35 0.07 0.89 0.27 1.64 0.77 0.29-0.09 0.6-0.14 0.9-0.19 0.67-0.08 1.36-0.08 2.03 0 0.31 0.04 0.61 0.11 0.91 0.19 1.5-1 2.18-0.78 2.19-0.78 0 0 0.02 0 0.06 0.02 0.01 0.03 0.02 0.04 0.02 0.05 0.22 0.56 0.26 1.04 0.23 1.41-0.01 0.3-0.08 0.54-0.12 0.67 0.51 0.59 0.78 1.34 0.78 2.11 0 1.53-0.47 2.47-1.18 3.06-0.63 0.52-1.43 0.75-2.23 0.86 0.09 0.12 0.18 0.27 0.25 0.45 0.08 0.25 0.14 0.54 0.14 0.88 0 0.63 0 1.28-0.01 1.71v0.43c0 0.01 0 0.04 0.01 0.06 0.01 0.05 0.03 0.1 0.07 0.14 0.02 0.01 0.05 0.03 0.08 0.04h0.25c0.01 0.15 0.01 0.24 0.02 0.25-0.06 0.02-0.11 0.02-0.16 0.02s-0.1 0-0.14-0.02c-0.44 0-3.93 0.01-4.37 0.01-0.04 0.01-0.08 0.01-0.13 0.01s-0.1 0-0.16-0.02c0-0.01 0.01-0.1 0.02-0.25h0.24c0.04-0.01 0.06-0.03 0.09-0.05 0.04-0.03 0.06-0.08 0.07-0.13v-0.06z"/>
<path id="x" d="m0 31h30v30h-30v-30z"/>
<path id="t" d="m12.2 52.1v-6.34h-1.35v-1.83h1.35v-1.23c0-0.54 0.01-1.37 0.44-1.89 0.44-0.55 1.05-0.92 2.1-0.92 1.71 0 2.42 0.23 2.42 0.23-0.03 0.19-0.31 1.68-0.34 1.87 0 0-0.56-0.15-1.09-0.15s-1 0.18-1 0.67v1.43h2.16l-0.15 1.83h-2.01v6.33"/>
<path id="l" d="m12.2 21.75v-6.34h-1.35v-1.83h1.35v-1.23c0-0.54 0.01-1.37 0.44-1.89 0.44-0.55 1.05-0.92 2.1-0.92 1.71 0 2.42 0.23 2.42 0.23-0.03 0.19-0.31 1.68-0.34 1.87 0 0-0.56-0.15-1.09-0.15s-1 0.18-1 0.67v1.43h2.16l-0.15 1.83h-2.01v6.33"/>
<path id="o" d="m12.07 309.22 0.28 0.08 0.28 0.09 0.26 0.12 0.26 0.15 0.24 0.16 0.23 0.19 0.4-0.2 0.42-0.18 0.21-0.06 0.22-0.05 0.22-0.02h0.22l0.23 0.05 0.23 0.09 0.18 0.16 0.13 0.19 0.08 0.23 0.04 0.23-0.02 0.24-0.08 0.23-0.12 0.2-0.19 0.16-0.19 0.1-0.18 0.04-0.18-0.03-0.17-0.07-0.17-0.09-0.17-0.11-0.17-0.1-0.17-0.08-0.18-0.05 0.05 0.32 0.04 0.32 0.02 0.32-0.01 0.33-0.03 0.32-0.07 0.31-0.11 0.3-0.15 0.29-0.2 0.26-0.29 0.3-0.32 0.24-0.36 0.2-0.37 0.15-0.39 0.11-0.41 0.07-0.41 0.04h-0.41l-0.4-0.03-0.18-0.01-0.16 0.06-0.15 0.1-0.12 0.15-0.08 0.16-0.04 0.17 0.03 0.15 0.1 0.13 0.17 0.08 0.39 0.05 0.39 0.03h0.78l0.39-0.01h0.4l0.39 0.01 0.39 0.03 0.38 0.05 0.31 0.08 0.31 0.12 0.29 0.14 0.27 0.18 0.25 0.21 0.22 0.23 0.19 0.26 0.15 0.28 0.11 0.31 0.08 0.34 0.01 0.34-0.04 0.33-0.08 0.33-0.13 0.31-0.17 0.3-0.2 0.28-0.24 0.25-0.26 0.22-0.48 0.29-0.5 0.24-0.53 0.19-0.54 0.14-0.55 0.09-0.56 0.06-0.57 0.01-0.56-0.02-0.55-0.06-0.2-0.04-0.19-0.04-0.19-0.03-0.19-0.05-0.19-0.04-0.19-0.06-0.18-0.07-0.18-0.09-0.17-0.1-0.17-0.12-0.15-0.13-0.14-0.15-0.12-0.16-0.1-0.18-0.08-0.18-0.05-0.19-0.02-0.2 0.02-0.2 0.05-0.26 0.1-0.24 0.13-0.22 0.17-0.2 0.19-0.18 0.2-0.17 0.22-0.15 0.23-0.14 0.23-0.12-0.09-0.07-0.11-0.09-0.13-0.1-0.14-0.12-0.14-0.13-0.12-0.15-0.1-0.15-0.07-0.17-0.03-0.18-0.03-0.3 0.03-0.28 0.09-0.27 0.13-0.25 0.16-0.24 0.2-0.22 0.22-0.19 0.24-0.17 0.25-0.15-0.04-0.08-0.07-0.09-0.1-0.1-0.11-0.1-0.12-0.1-0.24-0.22-0.09-0.12-0.07-0.12-0.15-0.27-0.12-0.28-0.09-0.3-0.06-0.3-0.03-0.31v-0.3l0.03-0.31 0.07-0.3 0.09-0.29 0.22-0.38 0.26-0.32 0.32-0.28 0.35-0.22 0.39-0.18 0.4-0.14 0.42-0.09 0.43-0.05 0.42-0.01h0.29l0.29 0.03 0.29 0.05zm-1.32 8.76-0.38 0.05-0.44 0.12-0.38 0.25-0.21 0.4v0.52l0.23 0.45 0.39 0.35 0.48 0.22 0.61 0.11 0.62 0.01 0.62-0.11 0.57-0.23 0.37-0.26 0.24-0.38 0.07-0.43-0.12-0.44-0.34-0.37-0.44-0.2-0.51-0.08-0.5-0.01h-0.39l-0.22 0.01-0.27 0.02zm-0.39-7.28-0.12 0.34-0.07 0.5-0.05 0.51 0.02 0.51 0.08 0.5 0.18 0.43 0.35 0.31 0.41 0.09 0.4-0.26 0.26-0.57 0.11-0.68 0.03-0.69v-0.58l-0.04-0.45-0.14-0.33-0.25-0.2-0.35-0.06-0.35 0.09-0.27 0.23-0.2 0.31z"/>
<path id="ag" d="m12.73 339.21 0.29 0.07 0.27 0.1 0.27 0.12 0.25 0.14 0.25 0.17 0.22 0.18 0.2-0.1 0.21-0.09 0.2-0.1 0.21-0.08 0.22-0.07 0.22-0.05 0.22-0.02 0.22 0.01 0.23 0.04 0.22 0.1 0.18 0.15 0.13 0.2 0.09 0.22 0.03 0.24-0.02 0.24-0.07 0.22-0.13 0.2-0.18 0.16-0.19 0.11-0.19 0.03-0.17-0.02-0.18-0.07-0.16-0.1-0.34-0.2-0.17-0.09-0.18-0.04 0.05 0.31 0.04 0.32 0.01 0.33v0.33l-0.04 0.32-0.07 0.31-0.1 0.3-0.16 0.28-0.19 0.27-0.29 0.29-0.33 0.25-0.35 0.19-0.38 0.16-0.39 0.11-0.4 0.07-0.41 0.03h-0.41l-0.41-0.02-0.17-0.01-0.17 0.05-0.15 0.11-0.12 0.14-0.08 0.17-0.03 0.16 0.03 0.16 0.09 0.12 0.18 0.09 0.39 0.05 0.39 0.02 0.39 0.01h0.39l0.39-0.01h0.78l0.39 0.03 0.39 0.06 0.31 0.08 0.3 0.11 0.29 0.15 0.28 0.18 0.24 0.2 0.23 0.24 0.19 0.25 0.15 0.29 0.11 0.3 0.07 0.34 0.02 0.34-0.04 0.34-0.09 0.33-0.13 0.31-0.17 0.3-0.2 0.27-0.23 0.25-0.26 0.22-0.48 0.3-0.51 0.24-0.52 0.19-0.54 0.14-0.56 0.09-0.56 0.05-0.56 0.01-0.56-0.02-0.56-0.05-0.76-0.16-0.19-0.05-0.19-0.06-0.18-0.07-0.18-0.08-0.18-0.1-0.16-0.12-0.15-0.14-0.14-0.15-0.12-0.16-0.1-0.17-0.08-0.18-0.05-0.19-0.02-0.2 0.01-0.2 0.06-0.26 0.09-0.24 0.14-0.22 0.16-0.21 0.19-0.18 0.21-0.16 0.22-0.15 0.22-0.14 0.23-0.12-0.08-0.07-0.11-0.09-0.13-0.1-0.14-0.12-0.14-0.14-0.12-0.14-0.11-0.16-0.07-0.17-0.03-0.17-0.02-0.3 0.03-0.28 0.08-0.27 0.13-0.26 0.17-0.24 0.2-0.21 0.22-0.2 0.24-0.17 0.24-0.14-0.04-0.09-0.07-0.09-0.09-0.09-0.12-0.1-0.24-0.22-0.11-0.11-0.1-0.12-0.07-0.12-0.14-0.27-0.12-0.28-0.09-0.29-0.06-0.3-0.03-0.31v-0.31l0.03-0.3 0.06-0.3 0.1-0.29 0.21-0.38 0.27-0.33 0.31-0.27 0.36-0.23 0.38-0.18 0.41-0.13 0.42-0.09 0.42-0.05 0.42-0.02 0.29 0.01 0.3 0.03 0.28 0.05zm-1.31 8.75-0.38 0.05-0.44 0.13-0.39 0.24-0.21 0.4 0.01 0.52 0.23 0.46 0.39 0.35 0.47 0.22 0.61 0.1 0.63 0.01 0.61-0.1 0.58-0.24 0.37-0.26 0.23-0.37 0.08-0.44-0.12-0.43-0.34-0.37-0.45-0.2-0.5-0.09h-0.5l-0.2-0.01h-0.2l-0.21 0.01-0.27 0.02zm-0.39-7.27-0.12 0.33-0.08 0.5-0.04 0.51 0.01 0.51 0.09 0.5 0.18 0.43 0.34 0.32 0.42 0.08 0.39-0.26 0.26-0.56 0.12-0.68 0.03-0.69v-0.59l-0.05-0.44-0.14-0.33-0.24-0.2-0.35-0.06-0.35 0.09-0.27 0.23-0.2 0.31z"/>
<path id="ak" d="m8.46 361.1c-4.9 0.13-8.81 4.2-8.72 9.07 0.02 1.2 0.19 10.8 0.21 12 0.09 4.87 4.14 8.73 9.04 8.6 1.2-0.03 10.83-0.29 12.03-0.32 4.9-0.13 8.81-4.2 8.72-9.08-0.02-1.2-0.19-10.79-0.22-11.99-0.08-4.88-4.13-8.74-9.03-8.61-2.4 0.07-10.83 0.29-12.03 0.33zm12.51 26.36c-1.2 0.03-10.83 0.29-12.04 0.32-3.24 0.09-5.92-2.46-5.98-5.69-0.02-1.2-0.19-10.8-0.21-12-0.06-3.23 2.52-5.92 5.77-6.01 1.2-0.03 10.83-0.29 12.04-0.32 3.24-0.09 5.92 2.46 5.98 5.7 0.01 0.8 0.08 4.8 0.21 11.99-1.68 3.95-3.61 5.95-5.77 6.01z"/>
<linearGradient id="c" x1="15" x2="14.48" y1="390.52" y2="361.17" gradientUnits="userSpaceOnUse">
<stop stop-color="#e09b3d" offset="0"/>
<stop stop-color="#c74c4d" offset=".3"/>
<stop stop-color="#c21975" offset=".6"/>
<stop stop-color="#7024c4" offset="1"/>
</linearGradient>
<path id="ab" d="m7.04 375.98c0.07 4.23 3.59 7.58 7.84 7.47 4.24-0.12 7.64-3.65 7.56-7.88-0.07-4.24-3.59-7.59-7.84-7.47-4.24 0.11-7.64 3.65-7.56 7.88zm2.99-0.08c-0.04-2.59 2.03-4.75 4.63-4.82s4.74 1.98 4.79 4.57c0.04 2.59-2.03 4.74-4.63 4.81s-4.74-1.97-4.79-4.56z"/>
<path id="j" d="m22.29 366.11c-1.02 0.03-1.83 0.87-1.81 1.89 0.01 1.01 0.86 1.82 1.87 1.79 1.02-0.03 1.84-0.87 1.82-1.89s-0.86-1.82-1.88-1.79z"/>
<linearGradient id="ao" x1="22.72" x2="22.2" y1="390.32" y2="360.96" gradientUnits="userSpaceOnUse">
<stop stop-color="#e09b3d" offset="0"/>
<stop stop-color="#c74c4d" offset=".3"/>
<stop stop-color="#c21975" offset=".6"/>
<stop stop-color="#7024c4" offset="1"/>
</linearGradient>
<path id="r" d="m9.46 391.1c-4.9 0.13-8.81 4.2-8.72 9.07 0.02 1.2 0.19 10.8 0.21 12 0.09 4.87 4.14 8.73 9.04 8.6 1.2-0.03 10.83-0.29 12.03-0.32 4.9-0.13 8.81-4.2 8.72-9.08-0.02-1.2-0.19-10.79-0.22-11.99-0.08-4.88-4.13-8.74-9.03-8.61-2.4 0.07-10.83 0.29-12.03 0.33zm12.51 26.36c-1.2 0.03-10.83 0.29-12.04 0.32-3.24 0.09-5.92-2.46-5.98-5.69-0.02-1.2-0.19-10.8-0.21-12-0.06-3.23 2.52-5.92 5.77-6.01 1.2-0.03 10.83-0.29 12.04-0.32 3.24-0.09 5.92 2.46 5.98 5.7 0.01 0.8 0.08 4.8 0.21 11.99-1.68 3.95-3.61 5.95-5.77 6.01z"/>
<linearGradient id="b" x1="16" x2="15.48" y1="420.52" y2="391.17" gradientUnits="userSpaceOnUse">
<stop stop-color="#e09b3d" offset="0"/>
<stop stop-color="#c74c4d" offset=".3"/>
<stop stop-color="#c21975" offset=".6"/>
<stop stop-color="#7024c4" offset="1"/>
</linearGradient>
<path id="f" d="m8.04 405.98c0.07 4.23 3.59 7.58 7.84 7.47 4.24-0.12 7.64-3.65 7.56-7.88-0.07-4.24-3.59-7.59-7.84-7.47-4.24 0.11-7.64 3.65-7.56 7.88zm2.99-0.08c-0.04-2.59 2.03-4.75 4.63-4.82s4.74 1.98 4.79 4.57c0.04 2.59-2.03 4.74-4.63 4.81s-4.74-1.97-4.79-4.56z"/>
<path id="s" d="m23.29 396.11c-1.02 0.03-1.83 0.87-1.81 1.89 0.01 1.01 0.86 1.82 1.87 1.79 1.02-0.03 1.84-0.87 1.82-1.89s-0.86-1.82-1.88-1.79z"/>
<linearGradient id="ap" x1="23.72" x2="23.2" y1="420.32" y2="390.96" gradientUnits="userSpaceOnUse">
<stop stop-color="#e09b3d" offset="0"/>
<stop stop-color="#c74c4d" offset=".3"/>
<stop stop-color="#c21975" offset=".6"/>
<stop stop-color="#7024c4" offset="1"/>
</linearGradient>
</defs>
<use fill="#000000" xlink:href="#ai"/>
<use fill-opacity="0" stroke="#000000" stroke-opacity="0" xlink:href="#ai"/>
<use fill="#dc4e41" xlink:href="#p"/>
<use fill-opacity="0" stroke="#000000" stroke-opacity="0" xlink:href="#p"/>
<use fill="#000000" fill-opacity="0" xlink:href="#d"/>
<use fill-opacity="0" stroke="#000000" stroke-opacity="0" xlink:href="#d"/>
<use fill="#ffffff" xlink:href="#am"/>
<use fill-opacity="0" stroke="#000000" stroke-opacity="0" xlink:href="#am"/>
<use fill="#000000" xlink:href="#w"/>
<use fill-opacity="0" stroke="#000000" stroke-opacity="0" xlink:href="#w"/>
<use fill="#000000" xlink:href="#e"/>
<use fill-opacity="0" stroke="#000000" stroke-opacity="0" xlink:href="#e"/>
<use fill="#000000" xlink:href="#k"/>
<use fill-opacity="0" stroke="#000000" stroke-opacity="0" xlink:href="#k"/>
<use fill="#0378b5" xlink:href="#h"/>
<use fill-opacity="0" stroke="#000000" stroke-opacity="0" xlink:href="#h"/>
<use fill="#000000" fill-opacity="0" xlink:href="#aa"/>
<use fill-opacity="0" stroke="#000000" stroke-opacity="0" xlink:href="#aa"/>
<use fill="#ffffff" xlink:href="#y"/>
<use fill-opacity="0" stroke="#000000" stroke-opacity="0" xlink:href="#y"/>
<use fill="#ffffff" xlink:href="#g"/>
<use fill-opacity="0" stroke="#000000" stroke-opacity="0" xlink:href="#g"/>
<use fill="#ffffff" xlink:href="#af"/>
<use fill-opacity="0" stroke="#000000" stroke-opacity="0" xlink:href="#af"/>
<use fill="#55acee" xlink:href="#q"/>
<use fill-opacity="0" stroke="#000000" stroke-opacity="0" xlink:href="#q"/>
<use fill="#ffffff" xlink:href="#ac"/>
<use fill-opacity="0" stroke="#000000" stroke-opacity="0" xlink:href="#ac"/>
<use fill="#000000" xlink:href="#ae"/>
<use fill-opacity="0" stroke="#000000" stroke-opacity="0" xlink:href="#ae"/>
<use fill="#000000" xlink:href="#an"/>
<use fill-opacity="0" stroke="#000000" stroke-opacity="0" xlink:href="#an"/>
<use fill="#000000" xlink:href="#ad"/>
<use fill-opacity="0" stroke="#000000" stroke-opacity="0" xlink:href="#ad"/>
<use fill="#000000" xlink:href="#i"/>
<use fill-opacity="0" stroke="#000000" stroke-opacity="0" xlink:href="#i"/>
<use fill="#000000" xlink:href="#a"/>
<use fill-opacity="0" stroke="#000000" stroke-opacity="0" xlink:href="#a"/>
<use fill="#f38b00" xlink:href="#aj"/>
<use fill-opacity="0" stroke="#000000" stroke-opacity="0" xlink:href="#aj"/>
<use fill="#ffffff" xlink:href="#m"/>
<use fill-opacity="0" stroke="#000000" stroke-opacity="0" xlink:href="#m"/>
<use fill="#ffffff" xlink:href="#ah"/>
<use fill-opacity="0" stroke="#000000" stroke-opacity="0" xlink:href="#ah"/>
<use fill="#ffffff" xlink:href="#al"/>
<use fill-opacity="0" stroke="#000000" stroke-opacity="0" xlink:href="#al"/>
<use fill="#ffffff" xlink:href="#u"/>
<use fill-opacity="0" stroke="#000000" stroke-opacity="0" xlink:href="#u"/>
<use fill="#424242" xlink:href="#v"/>
<use fill-opacity="0" stroke="#000000" stroke-opacity="0" xlink:href="#v"/>
<use fill="#424242" xlink:href="#z"/>
<use fill-opacity="0" stroke="#000000" stroke-opacity="0" xlink:href="#z"/>
<use fill="#ffffff" xlink:href="#n"/>
<use fill-opacity="0" stroke="#000000" stroke-opacity="0" xlink:href="#n"/>
<use fill="#3d5193" xlink:href="#x"/>
<use fill-opacity="0" stroke="#000000" stroke-opacity="0" xlink:href="#x"/>
<use fill="#ffffff" xlink:href="#t"/>
<use fill-opacity="0" stroke="#000000" stroke-opacity="0" xlink:href="#t"/>
<use fill="#000000" xlink:href="#l"/>
<use fill-opacity="0" stroke="#000000" stroke-opacity="0" xlink:href="#l"/>
<use fill="#000000" xlink:href="#o"/>
<use fill-opacity="0" stroke="#000000" stroke-opacity="0" xlink:href="#o"/>
<use fill="#fff7f7" xlink:href="#ag"/>
<use fill-opacity="0" stroke="#000000" stroke-opacity="0" xlink:href="#ag"/>
<use fill="url(#c)" xlink:href="#ak"/>
<use fill-opacity="0" stroke="#000000" stroke-opacity="0" xlink:href="#ak"/>
<use fill="url(#c)" xlink:href="#ab"/>
<use fill-opacity="0" stroke="#000000" stroke-opacity="0" xlink:href="#ab"/>
<use fill="url(#ao)" xlink:href="#j"/>
<use fill-opacity="0" stroke="#000000" stroke-opacity="0" xlink:href="#j"/>
<use fill="url(#b)" xlink:href="#r"/>
<use fill-opacity="0" stroke="#000000" stroke-opacity="0" xlink:href="#r"/>
<use fill="url(#b)" xlink:href="#f"/>
<use fill-opacity="0" stroke="#000000" stroke-opacity="0" xlink:href="#f"/>
<use fill="url(#ap)" xlink:href="#s"/>
<use fill-opacity="0" stroke="#000000" stroke-opacity="0" xlink:href="#s"/>
</svg>
