<svg xmlns="http://www.w3.org/2000/svg" viewBox="0 0 1000 1000"><path d="M876.8 160.3L739.7 25.1c-9.8-9.7-22.9-15.1-36.8-15.1H160c-28.9 0-52.4 23.5-52.4 52.4v875.2c0 28.9 23.5 52.4 52.4 52.4h680c28.9 0 52.4-23.5 52.4-52.4v-740c0-14-5.7-27.6-15.6-37.3zm-38.2 17.6H722.7l-.1-114.4 116 114.4zm1.4 772.7H160c-7.2 0-13-5.9-13-13V62.4c0-7.2 5.8-13 13-13h523.2l.2 148.2c0 10.9 8.8 19.7 19.7 19.7h150v720.3c0 7.2-5.9 13-13.1 13z"/><path d="M742.1 298.1H267.8c-10.9 0-19.7 8.8-19.7 19.7v470.4c0 10.9 8.8 19.7 19.7 19.7H742.1c10.9 0 19.7-8.8 19.7-19.7V317.8c-.1-10.9-8.9-19.7-19.7-19.7zm-19.7 235.2H603.7V455h118.7v78.3zm-158.1 0H445.6V455h118.7v78.3zm-158.1 0H287.5V455h118.7v78.3zm-118.7 39.3h118.7v78.2H287.5v-78.2zm158.1 0h118.7v78.2H445.6v-78.2zm158.1 0h118.7v78.2H603.7v-78.2zm118.7-156.9H603.7v-78.2h118.7v78.2zm-158.1 0H445.6v-78.2h118.7v78.2zm-276.8-78.3h118.7v78.2H287.5v-78.2zm0 352.8h118.7v78.2H287.5v-78.2zm158.1 0h118.7v78.2H445.6v-78.2zm276.8 78.2H603.7v-78.2h118.7v78.2z"/></svg>