<svg xmlns="http://www.w3.org/2000/svg" xmlns:xlink="http://www.w3.org/1999/xlink" width="150" height="150"><defs><path d="M50.91 92.1c-6.26 6.99-13.56 10.44-21.91 10.44-8.45 0-15.33-2.61-20.86-7.94C2.71 89.29 0 82.61 0 74.47c0-8.13 2.82-14.91 8.35-20.34 5.53-5.42 12.31-8.14 20.34-8.14 8.97 0 16.48 3.45 22.53 10.23-.76.86-6.86 7.7-7.61 8.55-3.86-4.79-8.66-7.19-14.4-7.19-4.59 0-8.55 1.45-11.78 4.48-3.23 3.03-4.9 7.1-4.9 12.1s1.55 9.18 4.58 12.21c3.23 3.33 6.89 4.8 11.27 4.8 5.94 0 10.85-2.4 14.7-7.09.79.79 7.04 7.23 7.83 8.02z" id="a"/><path d="M73.75 65.81c1.47.95 4.7 2.09 9.92 3.35 5.21 1.24 9.18 3.22 12.09 5.74 2.82 2.6 4.28 6.25 4.28 11.15 0 4.91-1.88 8.86-5.53 11.9-3.65 3.02-8.56 4.59-14.5 4.59-8.66 0-16.47-3.24-23.37-9.61.74-.88 6.57-7.97 7.31-8.85 5.84 5.21 11.37 7.71 16.38 7.71 2.19 0 3.96-.52 5.31-1.46 1.26-.94 1.88-2.3 1.88-3.96 0-1.67-.73-2.93-2.09-3.97-1.35-.94-4.07-1.98-8.02-2.91-6.37-1.47-11.06-3.45-13.99-5.95-2.92-2.4-4.38-6.26-4.38-11.48 0-5.22 1.88-9.17 5.64-12 3.76-2.81 8.35-4.16 13.97-4.16 3.66 0 7.3.62 10.96 1.87 3.65 1.25 6.78 3.03 9.49 5.32-.62.89-5.53 7.98-6.15 8.87-4.69-3.65-9.71-5.43-14.71-5.43-2.09.21-3.76.74-4.9 1.67-1.15.94-1.78 2.3-1.78 3.86s.73 2.82 2.19 3.75z" id="b"/><path d="M123.71 65.81c1.47.95 4.71 2.09 9.92 3.35 5.21 1.24 9.18 3.22 12.1 5.74 2.81 2.6 4.27 6.25 4.27 11.15 0 4.91-1.88 8.86-5.52 11.9-3.65 3.02-8.56 4.59-14.5 4.59-8.66 0-16.48-3.24-23.37-9.61.73-.88 6.58-7.97 7.3-8.85 5.85 5.21 11.37 7.71 16.38 7.71 2.19 0 3.96-.52 5.32-1.46 1.25-.94 1.87-2.3 1.87-3.96 0-1.67-.72-2.93-2.07-3.97-1.36-.94-4.07-1.98-8.04-2.91-6.37-1.47-11.06-3.45-13.98-5.95-2.91-2.4-4.38-6.26-4.38-11.48 0-5.22 1.88-9.17 5.63-12 3.76-2.81 8.35-4.16 13.99-4.16 3.64 0 7.29.62 10.94 1.87 3.65 1.25 6.78 3.03 9.5 5.32-.63.89-5.54 7.98-6.16 8.87-4.69-3.65-9.71-5.43-14.71-5.43-2.19.21-3.75.74-4.9 1.67-1.14.94-1.78 2.3-1.78 3.86s.74 2.82 2.19 3.75z" id="c"/><path d="M32.45 29.2c5.32-5.21 11.27-9.49 17.94-12.62-4.6 6.15-8.45 13.98-11.38 22.32h10.64c1.57-4.16 3.45-8.13 5.54-11.58 3.33-5.62 7.4-10.21 11.58-13.14 2.19-1.56 4.79-2.71 6.88-3.44V38.9h9.38V10.74c3.14.62 4.8 1.78 6.99 3.33 4.18 2.92 8.25 7.52 11.58 13.15a70.36 70.36 0 0 1 5.64 11.58h10.64c-2.93-8.34-6.68-16.27-11.37-22.43a66.255 66.255 0 0 1 17.94 12.73c2.92 2.92 5.63 6.47 7.92 9.59h11.8C131.34 15.75 106.72 0 78.45 0 50.17 0 25.57 15.75 12.73 38.69h11.79v.21c3.27-4.52 5.91-7.75 7.93-9.7z" id="d"/><path d="M124.56 121a67.561 67.561 0 0 1-17.95 12.62c4.49-5.95 8.24-13.25 11.06-21.59h-10.64c-1.46 4.17-3.24 7.72-5.21 10.95-3.35 5.64-7.62 10.23-11.69 13.14-2.19 1.57-3.86 2.82-6.99 3.44v-27.64h-9.39v27.64c-2.08-.62-4.69-1.76-6.88-3.33-4.17-2.92-8.24-7.73-11.58-13.35-1.98-3.23-3.76-6.78-5.22-10.96H39.33c2.82 8.35 6.58 15.86 11.06 21.81-6.67-3.24-12.73-7.63-17.94-12.84-2.72-2.73-5.2-5.7-7.41-8.86H13.25c12.94 22.94 37.35 37.86 65.2 37.86s52.25-14.92 65.19-37.86h-11.68v-.11c-3.06 4.17-5.53 7.2-7.4 9.08z" id="e"/></defs><use xlink:href="#a" fill="#3952ea"/><use xlink:href="#a" fill-opacity="0" stroke="#000" stroke-opacity="0"/><use xlink:href="#b" fill="#ea3939"/><use xlink:href="#b" fill-opacity="0" stroke="#000" stroke-opacity="0"/><use xlink:href="#c" fill="#39ea69"/><use xlink:href="#c" fill-opacity="0" stroke="#000" stroke-opacity="0"/><g><use xlink:href="#d" fill="#b81a93"/><use xlink:href="#d" fill-opacity="0" stroke="#000" stroke-opacity="0"/></g><g><use xlink:href="#e" fill="#b81a93"/><use xlink:href="#e" fill-opacity="0" stroke="#000" stroke-opacity="0"/></g></svg>