<svg data-name="Слой 6" xmlns="http://www.w3.org/2000/svg" viewBox="0 0 600 600"><circle cx="300" cy="300" r="300" fill="#072816"/><path d="M88.54 205.13h30.93V346.4a192.36 192.36 0 0 1-39.7 4.13c-37.13 0-56.73-17-56.73-49 0-30.93 20.6-51.6 52.6-51.6a56.36 56.36 0 0 1 13.36 1.6v-46.4h-.5zm0 71.2a35.75 35.75 0 0 0-10.33-1.57C62.74 274.77 54 284 54 301.06s8.77 25 24.23 25a36.82 36.82 0 0 0 10.33-1v-48.73zm79.4-23.73v70.63c0 24.23-1.57 36.07-7.2 46.4a49 49 0 0 1-25 22.67l-28.05-13.4c13.4-6.26 20.1-11.83 24.23-20.6s5.7-18.79 5.7-45.4v-60.36H168zm-30.37-47.15H168v31.31h-30.43v-31.31zm49 53.66a93.55 93.55 0 0 1 40.2-9.27c15.47 0 25.8 4.13 30.43 12.52 2.57 4.63 3.63 10.33 3.63 23.23v61.87A327.37 327.37 0 0 1 217 351.1c-25.8 0-37.13-8.77-37.13-28.87 0-21.67 15.47-31.31 52.6-34.56v-6.77c0-5.7-2.57-7.76-10.33-7.76a80 80 0 0 0-36.14 9.33l.5-23.23v-.13zM234 307.58c-20.1 2.07-26.8 5.13-26.8 12.9 0 6.26 3.63 8.77 11.83 8.77a76.71 76.71 0 0 0 14.46-1.57v-19.92h.51v-.19zM275.77 257a187.85 187.85 0 0 1 48-6.7c15.47 0 26.8 3.63 33.5 10.33s8.27 13.9 8.27 28.87v59.92h-30.47v-58.69c0-11.83-4.13-16-15-16a53.22 53.22 0 0 0-13.9 2.07v72.64h-30.4V257zm101.56 109a68.88 68.88 0 0 0 32.5 8.52c20.1 0 28.37-8.27 28.37-27.3v-.82a40.51 40.51 0 0 1-19.6 4.13c-26.8 0-43.83-17.53-43.83-45.4 0-34.56 25-54.16 69.63-54.16a221.1 221.1 0 0 1 39.7 4.13l-10.33 22.17c-8.27-1.57-.5 0-6.7-1v3.07l.5 12.9v16.53a99.37 99.37 0 0 0 .5 12.52v8.27c0 26.3-2.07 38.7-8.77 48.47-9.27 15-25.8 22.17-49.53 22.17a80 80 0 0 1-33-6.26V366h.56zm60.86-90.73h-3.07a38.26 38.26 0 0 0-17.53 4.13 24 24 0 0 0-11.15 22.17c0 15.47 7.76 24.23 21.16 24.23a40.2 40.2 0 0 0 11.33-2.07l-.5-48.47h-.23zm93.93-25c30.43 0 49 18.79 49 50.53s-19.6 52.1-50.53 52.1S481 334.06 481 302.76c.56-32.69 20.1-52.79 51-52.79zm-.44 77.08c11.83 0 18.79-9.77 18.79-26.8s-6.7-26.8-18.79-26.8-18.79 9.77-18.79 26.8 6.77 26.75 18.79 26.75z" fill="#fff"/></svg>