<svg xmlns="http://www.w3.org/2000/svg" xmlns:xlink="http://www.w3.org/1999/xlink" width="150" height="150"><defs><path d="M55.26 47.33c-7.31 15.95 14.96 33.35 15.91 34.08.22.17.49.26.75.26.28 0 .56-.1.79-.29.44-.37.57-1 .3-1.51-.08-.16-8.07-15.68-7.77-26.82.1-3.88 5.53-8.28 11.28-12.94 5.26-4.27 11.23-9.11 14.72-14.77C98.91 12.89 90.39.64 90.3.52c-.34-.48-.96-.65-1.49-.42-.54.24-.83.82-.71 1.39.02.08 1.67 8.18-2.94 16.52-1.9 3.45-6.07 6.39-10.9 9.78-6.93 4.88-14.79 10.4-19 19.54z" id="a"/><path d="M103.8 31.71c-.3-.54-.95-.77-1.52-.55-1.18.44-28.83 11.1-28.83 23.98 0 8.88 3.79 13.57 6.56 17 1.09 1.34 2.03 2.5 2.33 3.49.87 2.86-1.19 8.02-2.05 9.76-.25.51-.13 1.11.29 1.48a1.232 1.232 0 0 0 1.51.08c.48-.33 11.62-8.21 9.62-17.71-.74-3.6-2.52-6.24-4.08-8.57-2.42-3.6-4.18-6.21-1.52-11.02 3.11-5.61 17.21-16.26 17.35-16.36.49-.37.63-1.04.34-1.58z" id="b"/><path d="M32.12 91.45c2.99 4.16 13.61 6.45 29.9 6.45 2.21 0 4.54-.04 6.92-.13 26.04-.93 35.7-9.04 36.1-9.39a1.226 1.226 0 0 0-1.13-2.11c-9.17 2.5-26.29 3.39-38.17 3.39-13.29 0-20.06-.96-21.72-1.66.85-1.17 6.1-3.26 12.6-4.53.62-.13 1.04-.7.98-1.33-.06-.63-.59-1.11-1.22-1.11-3.81 0-22.91.31-24.91 6.34-.47 1.42-.25 2.83.65 4.08z" id="c"/><path d="M107.92 81.83c-.5.26-.75.83-.61 1.38.13.54.63.93 1.19.93.11 0 11.46.09 12.48 6.57.91 5.59-10.73 14.65-15.29 17.67-.49.33-.69.96-.46 1.5.2.46.65.75 1.14.75.08 0 .17 0 .25-.02 1.09-.23 26.49-5.83 23.8-20.62-1.64-9.07-7.33-10.97-11.82-10.97-5.37 0-10.47 2.69-10.68 2.81z" id="d"/><path d="M100.67 105.34c-.61-.43-5.48-3.84-6.09-4.27-.29-.21-.67-.27-1.02-.18-.06.02-6.43 1.69-15.68 2.72-3.67.41-7.78.63-11.89.63-9.24 0-15.29-1.09-16.17-1.89-.12-.22-.08-.32-.06-.38.16-.44 1.02-.97 1.57-1.18.61-.23.94-.89.75-1.51-.19-.63-.83-.99-1.46-.84-6.11 1.47-9.1 3.54-8.89 6.13.39 4.59 11.04 6.95 20.03 7.58 1.3.08 2.7.13 4.16.13 14.97 0 34.15-4.7 34.34-4.74.47-.12.83-.5.92-.97.08-.47-.11-.96-.51-1.23z" id="e"/><path d="M55.76 115.04c-.17-.53-.66-.87-1.21-.87-.82.02-8.01.35-8.52 4.93-.15 1.37.24 2.62 1.17 3.72 2.58 3.06 9.56 4.88 21.31 5.56 1.39.08 2.8.12 4.2.12 14.95 0 25.01-4.68 25.43-4.88.41-.19.68-.59.71-1.04.02-.45-.21-.88-.59-1.12l-7.7-4.7c-.27-.16-.59-.21-.89-.15-.05.01-4.94 1.02-12.31 2.02-1.4.19-3.15.29-5.2.29-7.37 0-15.56-1.2-17.13-1.99-.03-.15 0-.34.22-.5.47-.3.67-.87.51-1.39z" id="f"/><path d="M121.89 132.68c1.26-1.35 1.39-2.63 1.29-3.47-.27-2.07-2.15-3.33-2.36-3.46-.51-.34-1.2-.25-1.6.21-.4.47-.41 1.14-.01 1.6.21.28.34.75-.29 1.38-1.42 1.32-15.69 5.33-39.45 6.54-3.26.17-6.67.25-10.15.25-21.28 0-36.85-2.91-38.89-4.61.79-1.13 6.29-2.94 12.15-3.96a1.24 1.24 0 0 0 1.01-1.4 1.23 1.23 0 0 0-1.38-1.03c-.17.02-.73.05-1.38.09-9.66.59-20.83 1.91-21.41 6.89-.18 1.51.27 2.89 1.34 4.09 2.61 2.93 10.11 6.83 44.98 6.83 34.24-.03 52.61-6.11 56.15-9.95z" id="g"/><path d="M127.2 134.04c-.05.06-5.2 5.44-20.67 8.6-5.93 1.19-17.05 1.79-33.06 1.79-16.04 0-31.3-.63-31.45-.64-.64-.03-1.18.43-1.27 1.06-.09.63.32 1.22.93 1.37.16.03 16.16 3.78 38.03 3.78 10.48 0 20.69-.85 30.33-2.53 17.98-3.15 19.24-12.07 19.28-12.45.06-.52-.22-1.03-.7-1.26-.49-.22-1.06-.11-1.42.28z" id="h"/></defs><use xlink:href="#a" fill="#db380e"/><use xlink:href="#a" fill-opacity="0" stroke="#000" stroke-opacity="0"/><use xlink:href="#b" fill="#db380e"/><use xlink:href="#b" fill-opacity="0" stroke="#000" stroke-opacity="0"/><use xlink:href="#c" fill="#73a1fb"/><use xlink:href="#c" fill-opacity="0" stroke="#000" stroke-opacity="0"/><use xlink:href="#d" fill="#73a1fb"/><use xlink:href="#d" fill-opacity="0" stroke="#000" stroke-opacity="0"/><g><use xlink:href="#e" fill="#73a1fb"/><use xlink:href="#e" fill-opacity="0" stroke="#000" stroke-opacity="0"/></g><g><use xlink:href="#f" fill="#73a1fb"/><use xlink:href="#f" fill-opacity="0" stroke="#000" stroke-opacity="0"/></g><g><use xlink:href="#g" fill="#73a1fb"/><use xlink:href="#g" fill-opacity="0" stroke="#000" stroke-opacity="0"/></g><g><use xlink:href="#h" fill="#73a1fb"/><use xlink:href="#h" fill-opacity="0" stroke="#000" stroke-opacity="0"/></g></svg>