<svg xmlns="http://www.w3.org/2000/svg" xmlns:xlink="http://www.w3.org/1999/xlink" width="150" height="150"><defs><path d="M94.83 143.87c-9.65-2.59-12.35-2.12-22.31-1.53-9.9.59-7.75-.3-13.96 2.5-6.17 2.79-26.89-33.86-28.56-40.68-1.65-6.81-1.33-7.66 1.84-15.59 2.64-6.55 5.75-14.11 10.58-21.38 5.88-8.83 12.23-13.52 11.76-20.37-1.85-25.42-3.32-38.12 7.96-44C72.9-2.77 81.9.56 85.46 2.46c1.52.83 4.63 2.41 6.96 5.21 2.32 2.73 4.4 6.88 5.58 12.11 2.41 10.5-1 7.02 1.73 19.05 2.71 11.99 8.2 17.86 14.9 27.36 6.7 9.49 13.7 25.16 11.47 34.22-1.94 7.99-11.79 24.68-17.02 32.02-5.23 7.38-4.59 14.03-14.25 11.44z" id="a"/><path d="M57.59 53.72c0 2.44-1.11 2.62-3.52 6.3-1.24 1.93-2.22 4.02-2.98 6.14-.46 1.27-.91 2.58-1.26 3.88-.15.65-.41 1.32-.56 1.97-1.21 4.43-5.49 9.91-6.49 14.34-1 4.4-2.22 7.23-2.03 13.13.15 4.64.2 4.21 1.99 5.68 1.77 1.47 3.59 2.86 6.38 5.32 2.95 2.56 9.05 7.03 9.88 8.4.89 1.41 1.65 3.66.33 5.62-1.34 1.96-6.61 1.74-6.58 1.74-.03 0 4.58 5.46 5.37 6.26.76.76 4.96 4.38 18.37 1.88 7.55-1.42 13.4-5.64 17.63-9.74 5.46-5.31 5.85-6.96 6.86-9.94 1.28-3.77 1.9-6.63 2.3-8.43.38-1.64.89-6.64.89-8.99 0-6.11-.7-12.34-2.12-16.93-1.29-4.29-3.34-7.28-5.11-11.17-3.53-7.72-3.35-11.2-6.49-16.13-3.59-5.7-1.82-9.49-6.59-9.26-5.93.33-10.72 8.47-16.33 8.7-3.82.15-8.87-10.04-9.36-6.12-.45 3.74-.58 3.71-.58 7.35z" id="b"/><path d="M99.17 77.8c-1.14.38-3.7-3.53-7.76-5.41-4.08-1.88-9.39-2.38-9.25-3.18.17-.79 8.49-2.14 9.99-1.7 1.48.44 8.2 9.91 7.02 10.29z" id="c"/><path d="M63.64 107.6c-.5.56-1.8-2.11-1.73-7.79.05-5.67.96-12.4 1.73-12.22.77.15-.45 5.67-.52 11.34-.06 5.68 1.02 8.11.52 8.67z" id="d"/><path d="M67.84 69.78c-.14.18-.81.76-1.17.73-.3-.04-.47-.62-.88-1.09-1.02-1.03-1.67-.94-1.47-1.33.15-.32 1.56.48 2.41.51.44.03 3.64-.65 3.76-.36.12.21-2 .89-2.65 1.54z" id="e"/><path d="M47.77 74.87c-1.65 1.37 5.54-16.38 5.14-14.08-.41 2.3-1.19 3.56-.78 4.94.73 2.45 4.31 2.91 4.12 3.72-.19.81-2.99 1.19-4.97 2.32-1.21.69-1.85 1.73-3.51 3.1z" id="f"/><path d="M135.65 123.45c1.2.73 2.9 1.43 2.85 3.57-.1 2.45-1.29 3.09-1.97 3.77-1.35 1.36-8.17 4.73-12.7 7.82-5.7 3.91-7.67 5.64-9.52 7.5-2.88 2.88-5.61 3.84-10 3.84-4.37 0-6.35-.91-7.69-2.11-1.35-1.17-2.85-4.18-2.71-8.64.12-4.44 1.54-8.5 2.21-15.4.3-2.98.26-6.65.26-9.91 0-4.12.06-7.61.94-8.14 1.59-1.01 1.95-1.06 3.83-1.06 1.87 0 2.73.12 3.34.73.6.59.35 1.94.15 3.85-.18 1.91.73 2.53 1.65 3.33.91.76 1.73 1.73 4.61 1.97 2.89.21 3.93-.27 5.29-1.13 1.35-.84 3.26-2.38 3.97-3.26.68-.84 2.35-3.78 2.68-3.78.28 0 2.23-.68 3.32.91 1.82 2.64-.06 6.08 1.26 8.2 2.17 3.46 6.55 6.96 8.23 7.94z" id="g"/><path d="M12.62 127.27c0 2.55-.44 4.48-.73 6.05-.41 1.97-.68 3.35.15 4.75 1.5 2.5 3.9 3.13 17.69 6 7.37 1.53 14.33 5.5 19.01 5.88 4.68.36 5.67-1.2 8.52-3.73 2.83-2.53 3.74-1.73 3.65-7.29-.09-5.52-3.65-7.18-7.67-13.55-4.03-6.38-4.68-7.55-7.34-11.79-2.68-4.17-7.97-11.75-11-11.84-2.4-.05-3.76 1.24-5.26 2.76-1.49 1.54-3.36 5.41-6 7.33-2.64 1.9-9.34 1.72-11.05 3.96-1.67 2.24.06 5.47.03 11.47z" id="h"/><path d="M67.2 29.36c0-2.94-.91-3.94-2.3-5.85-1.32-1.82-3.43-1.91-4.75-1.68-.76.13-1.77 1.09-2.44 2.53-.45.97-.8 2.2-.83 3.5-.08 3.47.21 4.8 1.01 7.15.94 2.76 3.22 4.2 4.93 3.52 1.77-.71 1.82-.64 2.99-3.21.94-1.96 1.42-2.96 1.39-5.96z" id="i"/><path d="M64.67 31.12c0 1.89-.2 3.97-1.32 4.62-.35.2-1.11.38-1.56.38-.99 0-1.09-.65-2.03-1.62-.32-.35-1.29-2.05-1.29-3.46 0-.88-.2-2.15.56-3.26.53-.83 1.21-1.22 2.15-1.22.88 0 1.99.59 2.53 1.39.55.79.96 1.91.96 3.17z" id="j"/><path d="M64.67 31.12c0 1.89-.2 3.97-1.32 4.62-.35.2-1.11.38-1.56.38-.99 0-1.09-.65-2.03-1.62-.32-.35-1.29-2.05-1.29-3.46 0-.88-.2-2.15.56-3.26.53-.83 1.21-1.22 2.15-1.22.88 0 1.99.59 2.53 1.39.55.79.96 1.91.96 3.17z" id="k"/><path d="M86.57 24.74c-1.86-3.28-2.91-3.82-5.58-4.02-4.12-.35-6.06 2.53-6.97 4.58-.97 2.23-.77 1.92-.71 4.73.06 2.98.97 4.22 2 6.06 1.03 1.83 5.23 2.85 5.73 2.82 4.42-.47 5.97-2.17 6.76-5.14.7-2.65.74-5.59-1.23-9.03z" id="l"/><path d="M83.84 34.33c-.8 1.06-2.21 1.7-3.36 1.7-1.08 0-2.32.17-2.96-.71-.65-.91-.8-2.94-.8-4.38 0-1.61.47-2.76 1.3-3.67.61-.67 1.73-.81 2.67-.81 2.2 0 3.5 1.96 3.94 4.48.18 1.16-.08 2.48-.79 3.39z" id="m"/><path d="M82.57 29.98c-.44.38-.62-.56-.91-.91-.53-.53-.97-.79-.5-1.24.23-.23.74 0 1.29.62.59.65.59 1.17.12 1.53z" id="n"/><path d="M62.96 30.6c-.52.21-.48-.66-.95-1.23-.44-.58-.8-.91-.63-1.26.17-.32.98-.24 1.34.37.36.62.43 2.06.24 2.12z" id="o"/><path d="M86.78 21.43c.49.56 1.38 2.38 1.68 2.29.3-.08-.35-1.3-.82-1.97-.47-.68-1.93-2.23-2.85-2.61-.93-.38-2.11-.44-2.1-.21.02.24 1.31.48 1.83.67.53.19 1.78 1.27 2.26 1.83z" id="p"/><path d="M67.44 23.69c.45-.04-.23-1.42-1.71-2.73-1.17-1.02-3.17-1.52-3.16-1.11.03.42 1.39.3 2.82 1.53 1.45 1.24 1.61 2.36 2.05 2.31z" id="q"/><path d="M79.27 35.42c3.86 1.26 8.92 1.84 8.68 5.31-.27 4.15-1.47 6-4.91 7.08-2.76.86-7.7 5.64-11.52 5.64-1.71 0-4.09.1-5.46-.4-1.33-.47-3.18-2.71-5.36-4.5-2.17-1.76-4.2-3.65-4.25-6.11-.1-2.62 1.62-3.46 4.02-5.56 1.27-1.11 3.55-2.96 5.14-3.79 1.47-.73 2.41-.58 3.94-.76 2.15-.27 5.08.26 6.43 1.26 1.27.94 2.15 1.44 3.29 1.83z" id="r"/><path d="M57.79 43.11c-.17-.05-.66-.02-.55.33.3.97.92 1.54 1.76 2.2 1.01.83 2.27 1.63 3.37 2.19.65.32 2.27.69 2.27.69 1.55.2 3 .15 3.94.15 2.21 0 4.94-.91 7.82-2.3 2.82-1.4 3.5-1.96 5.5-3.11 1.94-1.09 4.37-2.5 3.52-2.91-.85-.44-1.7.17-4.49 1.85-2.7 1.64-4.57 2.68-7.26 3.86-1.24.53-2.88 1.17-4.12 1.26-1.18.08-2.7.06-3.61.06-1.06 0-2.24-.43-3.35-.84-.68-.24-1.36-.63-1.62-.86-.95-.6-2.61-2.2-3.18-2.57z" id="s"/><path d="M74.02 35.65c.47-.23.11-1.09-.35-1.38-.45-.29-2.57-.35-2.39.08.33.66 1.15.74 1.71 1.07.53.29.82.35 1.03.23z" id="t"/><path d="M66.88 34.98c.73-.48.44-.8-.74-.63-1.21.24-1.21.71-1.32.97-.09.27.64.77.99.42.42-.32.89-.65 1.07-.76z" id="u"/><path d="M109.97 101.23c-.09.21.35.18.54-.08.19-.27.32-.53.54-1.02.88-1.99 3-8.42 2.22-13.82-.7-4.77-2.46-8.71-6.26-12.72-1.12-1.19-4.89-3.52-5.15-3.06-.2.35 3.19 1.11 6.74 5.84 3.19 4.24 4.8 9.91 4.16 14.46-.43 3.1-.68 4.27-1.3 6.35-.53 1.75-1.28 3.51-1.49 4.05z" id="v"/><path d="M115.49 101.24s1.5.22 2.88.78c1.36.55 3.12 1.6 3.21 2.64.07 1.05-.53.66-1.15-.28-.6-.93-1.77-1.63-3.21-2.1-1.44-.49-3.54-.7-4.38-.75-.84-.06-2.98-.06-4.22.35-1.24.39-1.88 1.34-2.46 1.47-.6.12.22-.96 1.25-1.61 1.02-.67 3.39-.9 4.88-.83 1.51.08 2.56.27 3.2.33z" id="w"/><path d="M42.6 104.73c-.45.46-4.02-3.66-4.73-5.21-.95-2.09-1.37-4.55-.99-8.05.54-4.77 2.14-8.55 4.02-12.55.7-1.48 2.74-5.29 3.09-4.9.44.51-1.19 1.69-3.39 6.97-2.03 4.92-2.76 7.03-3.1 10.81-.29 3.3.18 6.03 1.11 7.94 1.03 2.07 4.19 4.78 3.99 4.99z" id="x"/><path d="M86.5 9.93c-.17-1.2-1.46-2.7-1.99-2.76-.53-.03-1.73-.03-2.06.44-.35.41-.76 3.93.15 4.29.89.38 4.03-1.14 3.9-1.97z" id="y"/><path d="M97.88 50.08c1.29-1.38.26-2.68-.53-3.59-.79-.91-1.82-.58-2.76-1.49-.91-.91-1.56-.86-1.94-.41-.26.29.2 2.87 1.89 4.58 1.64 1.64 2.66 1.64 3.34.91z" id="z"/></defs><use xlink:href="#a"/><use xlink:href="#a" fill-opacity="0" stroke="#000" stroke-opacity="0"/><use xlink:href="#b" fill="#fff"/><use xlink:href="#b" fill-opacity="0" stroke="#000" stroke-opacity="0"/><use xlink:href="#c"/><use xlink:href="#c" fill-opacity="0" stroke="#000" stroke-opacity="0"/><use xlink:href="#d"/><use xlink:href="#d" fill-opacity="0" stroke="#000" stroke-opacity="0"/><use xlink:href="#e"/><use xlink:href="#e" fill-opacity="0" stroke="#000" stroke-opacity="0"/><use xlink:href="#f"/><use xlink:href="#f" fill-opacity="0" stroke="#000" stroke-opacity="0"/><use xlink:href="#g" fill="#ffb80f"/><use xlink:href="#g" fill-opacity="0" stroke="#000" stroke-opacity="0"/><use xlink:href="#h" fill="#ffb80f"/><use xlink:href="#h" fill-opacity="0" stroke="#000" stroke-opacity="0"/><use xlink:href="#i" fill="#fff"/><use xlink:href="#i" fill-opacity="0" stroke="#000" stroke-opacity="0"/><use xlink:href="#j"/><use xlink:href="#j" fill-opacity="0" stroke="#000" stroke-opacity="0"/><use xlink:href="#k" fill-opacity="0"/><use xlink:href="#k" fill-opacity="0" stroke="#000" stroke-opacity="0"/><use xlink:href="#l" fill="#fff"/><use xlink:href="#l" fill-opacity="0" stroke="#000" stroke-opacity="0"/><use xlink:href="#m"/><use xlink:href="#m" fill-opacity="0" stroke="#000" stroke-opacity="0"/><g><use xlink:href="#n" fill="#fff"/><use xlink:href="#n" fill-opacity="0" stroke="#000" stroke-opacity="0"/></g><g><use xlink:href="#o" fill="#fff"/><use xlink:href="#o" fill-opacity="0" stroke="#000" stroke-opacity="0"/></g><g><use xlink:href="#p" fill="#fff"/><use xlink:href="#p" fill-opacity="0" stroke="#000" stroke-opacity="0"/></g><g><use xlink:href="#q" fill="#fff"/><use xlink:href="#q" fill-opacity="0" stroke="#000" stroke-opacity="0"/></g><g><use xlink:href="#r" fill="#ffb80f"/><use xlink:href="#r" fill-opacity="0" stroke="#000" stroke-opacity="0"/></g><g><use xlink:href="#s"/><use xlink:href="#s" fill-opacity="0" stroke="#000" stroke-opacity="0"/></g><g><use xlink:href="#t"/><use xlink:href="#t" fill-opacity="0" stroke="#000" stroke-opacity="0"/></g><g><use xlink:href="#u"/><use xlink:href="#u" fill-opacity="0" stroke="#000" stroke-opacity="0"/></g><g><use xlink:href="#v" fill="#fff"/><use xlink:href="#v" fill-opacity="0" stroke="#000" stroke-opacity="0"/></g><g><use xlink:href="#w" fill="#fff"/><use xlink:href="#w" fill-opacity="0" stroke="#000" stroke-opacity="0"/></g><g><use xlink:href="#x" fill="#fff"/><use xlink:href="#x" fill-opacity="0" stroke="#000" stroke-opacity="0"/></g><g><use xlink:href="#y" fill="#fff"/><use xlink:href="#y" fill-opacity="0" stroke="#000" stroke-opacity="0"/></g><g><use xlink:href="#z" fill="#fff"/><use xlink:href="#z" fill-opacity="0" stroke="#000" stroke-opacity="0"/></g></svg>