<svg xmlns="http://www.w3.org/2000/svg" xmlns:xlink="http://www.w3.org/1999/xlink" width="150" height="150"><defs><path d="M76.78.06l.29.03.28.02.29.04.58.05.27.03.29.03.58.05.57.05.29.04.29.03.28.02.28.03.29.04.29.02.28.03.29.02.29.04.29.02.28.03.28.04.29.02.29.04.28.03.29.03.29.03.29.04.28.02.57.08.28.03.29.03.29.04.28.04.58.07.49.08.47.06.99.15.47.09.49.07.48.09.49.09 1.44.3.48.11.46.12.48.11.93.25.93.28.93.3.46.15.45.18.45.16.46.18.45.19.44.19.44.2.88.43.43.22.44.23.43.24.41.25.43.25.41.27.84.55 1.2.9.29.24.29.26.28.23.28.26.26.25.25.25.51.53.23.26.23.28.21.26.22.28.21.29.2.28.19.29.18.3.19.29.32.6.31.63.13.32.13.31.25.65.1.33.2.68.09.34.08.34.07.35.07.37.05.35.05.36.03.37.08 1.13v.38l.01.39-.02 1.64v1.62l-.01.82v1.62l-.02.82V39.1l.02.8v4.9l.01.8v7.34l-.01.9-.06.91-.06.88-.1.86-.12.84-.16.83-.18.81-.21.78-.23.76-.26.76-.29.72-.31.71-.33.68-.36.67-.38.64-.42.63-.42.59-.47.58-.48.57-.5.53-.53.51-.55.48-.57.46-.6.45-.62.41-.64.39-.66.37-.67.34-.71.32-.73.29-.74.27-.76.24-.79.21-.79.18-.83.16-.85.12-.85.12-.88.07-.9.05-.91.02-.9.01h-2.7l-.9.01h-3.6l-.9.01h-7.2l-.89-.01h-6.31l-.89-.01h-6.3l-.9-.01h-4.5l-1.02.01-1.02.05-.98.07-.96.12-.94.12-.92.18-.91.19-.87.23-.85.25-.82.29-.8.3-.78.34-.77.36-.73.41-.71.41-.68.45-.66.48-.63.51-.61.52-.59.56-.55.58-.53.6-.5.64-.48.66-.45.68-.42.7-.4.74-.37.76-.34.78-.31.8-.28.82-.26.86-.23.88-.19.89-.17.92-.13.94-.11.96-.08.99-.05 1.01-.02 1.03v4.17l-.02.38v6.05l.02.38v1.52l.01.38v.37l.01.38v.76l.01.37.02.39v.25l-.02.12v.12l-.01.12-.01.1-.01.11-.03.2-.07.27-.04.08-.03.08-.07.15-.05.08-.04.06-.05.06-.17.17-.06.05-.07.03-.07.05-.15.08-.07.02-.09.04-.18.05-.1.02-.1.02-.1.01-.11.02h-.12l-.11.01h-.38l-.21-.01h-.23l-.21-.02h-.23l-.21-.01h-.23l-.21-.01h-.23l-.21-.01h-.44l-.23-.02h-.44l-.21-.01h-1.32l-.23-.01h-.44l-.22.01h-1.1l-.22.01h-.44l-.22.02h-.22l-.22.01h-.22l-.22.01-.22.01h-.21l-1.06.03-.5-.01-.52-.03-.49-.04-.49-.05-.49-.06-.48-.08-.46-.08-.47-.1-.45-.12-.46-.12-.44-.14-.44-.15-.42-.17-.86-.35-.4-.2-.42-.2-.39-.23-.4-.22-.38-.24-.39-.26-.38-.26-.73-.55-.36-.29-.35-.32-.68-.63-.68-.68-.32-.36-.32-.35-.63-.76-.31-.4-.3-.39-.58-.83-.29-.43-.28-.44-.27-.44-.26-.43-.26-.45-.25-.44-.22-.45-.24-.44-.22-.46-.21-.46-.21-.46-.21-.46-.37-.93-.36-.93-.16-.48-.15-.48-.15-.47-.15-.47-.14-.5-.14-.47-.12-.48-.13-.49-.23-.98-.3-1.48-.17-.98-.08-.5-.08-.49-.07-.5-.06-.51L.78 87l-.05-.5-.06-.51-.1-1-.07-.64-.1-1.29-.06-.64-.04-.64-.1-1.28-.07-1.29-.03-.65-.07-1.93L0 75.35v-1.28l.04-1.93.02-.64.04-.63.08-1.28.05-.65.06-.63.07-.64.08-.63.08-.64.08-.63.1-.64.23-1.26.13-.63.14-.63.3-1.25.16-.63.18-.62.19-.63.4-1.26.23-.63.1-.3.11-.31.12-.32.12-.31.12-.3.12-.32.12-.31.14-.31.13-.31.12-.3.28-.61.14-.31.14-.3.15-.3.14-.31.15-.29.3-.6.3-.58.16-.3.5-.87.16-.28.18-.28.16-.28.17-.29.36-.55.19-.28.17-.27.19-.27.28-.39.29-.39.6-.73.3-.36.32-.35.65-.65.68-.61.34-.29.37-.28.35-.27.36-.26.38-.25.38-.24.38-.23.39-.23.4-.2.39-.2.4-.19.42-.19.83-.32.43-.16.42-.13.88-.26.44-.11.44-.1.46-.09.46-.09.46-.07.46-.06.47-.05.48-.04.46-.04.48-.02.49-.03h.48l1.23-.01h1.23l1.24-.02h2.46l1.24-.01h3.7l1.23-.01h9.87l1.23-.01h16.03l1.23-.02h4.94l1.23-.01H73l.08-.01h.17l.09-.01h.08l.27-.04h.09l.26-.04.1-.02.18-.03.09-.02.08-.02.08-.02.09-.01.08-.03.08-.01.23-.08.31-.12.05-.04.04-.03.05-.02.04-.04.04-.02.05-.08.01-.03.01-.03.03-.1.02-.12.03-.1.01-.11.02-.11.02-.1.02-.12.03-.22.01-.11.01-.11v-.11l.01-.11v-.12l.02-.11v-.68l-.02-.11v-.12l-.01-.11v-.11l-.09-.8-.02-.1-.03-.22-.05-.23-.01-.1-.05-.23-.04-.07-.09-.09-.07-.05-.1-.05-.05-.01-.05-.03-.13-.05-.06-.01-.13-.05-.07-.02-.06-.02-.16-.03-.07-.02-.15-.03-.09-.01-.23-.04-.09-.01-.07-.01h-.08l-.07-.01h-.08l-.07-.02h-.08l-.07-.01h-.28l-.77-.01h-1.53l-.77-.01h-2.3l-.77-.02h-3.84l-.77-.01h-8.44l-.77-.01H41.78l-.2-.01h-.38l-.33-.03-.3-.03-.13-.01-.12-.02-.23-.05-.1-.04-.18-.08-.07-.05-.06-.05-.08-.06-.05-.06-.05-.08-.05-.09-.04-.07-.07-.2-.05-.23-.03-.13-.01-.13-.03-.31-.01-.17v-.35l-.01-.21v-2.07l.01-.29v-.87l.01-.29v-.58l.01-.3v-.58l.02-.29v-.58l.01-.29v-.86l.01-.31v-1.73l-.01-.29v-.58l-.01-.29v-.29l-.03-.58v-.29l-.04-.87-.02-.29-.01-.46-.02-.45v-.46l.03-.44.02-.43.04-.42.05-.42.07-.41.07-.41.09-.4.09-.39.11-.39.11-.38.14-.38.14-.35.15-.36.17-.35.17-.34.19-.34.19-.33.2-.32.23-.31.22-.3.23-.3.25-.29.27-.29.26-.28.28-.26.58-.53.62-.48.33-.24.33-.23.7-.42.37-.21.36-.18.39-.19.39-.18.36-.16.35-.15.35-.14.35-.15.37-.14.35-.14.73-.28.35-.12.37-.14.36-.13.38-.12.36-.12.37-.12.36-.12.38-.11.37-.11.37-.12.37-.11.38-.11.37-.1.37-.1 1.89-.51.36-.08.38-.11 1.51-.35.39-.09 1.13-.26.38-.08.75-.17.29-.06.29-.05.29-.07.3-.05.58-.1.31-.05.28-.05.31-.04.29-.03.3-.04.29-.04.6-.08.29-.02.3-.03.3-.03.31-.03.29-.02 1.51-.13.29-.03.3-.01.9-.07.31-.03.3-.01.29-.03 1.51-.12.29-.03.3-.03.3-.03h2.5l.29.03.29.03zM51.19 12.27l-1.4 1.06-1.07 1.39-.68 1.68-.24 1.91.24 1.82.7 1.65 1.05 1.41 1.37 1.11 1.64.73 1.81.3 1.8-.23 1.67-.71 1.46-1.14 1.15-1.46.75-1.68.28-1.84-.24-1.8-.7-1.63-1.1-1.39-1.41-1.09-1.64-.71-1.83-.26-1.92.22-1.69.66z" id="a"/><path d="M119.73 38.35l.23.02h.21l.23.01h.21l.23.01h.44l.21.01h.23l.21.02h.67l.21.01h.88l.23.01h1.1l.22-.01h.88l.22-.01h.44l.22-.02h.22l.22-.01h.22l.22-.01.22-.01h.22l.53-.02.52-.01.52.01.5.03.49.04.5.05.48.06.48.08.46.08.47.1.47.12.44.12.45.14.43.15.44.17.41.17.43.18.4.2.42.2.39.23.4.22.38.24.39.26.38.26.73.55.36.29.35.32.68.63.68.68.32.35.32.36.63.76.31.39.3.4.58.83.29.43.28.44.27.43.26.44.25.44.26.45.22.44.24.45.22.46.21.46.21.46.21.46.37.93.36.93.16.48.15.48.15.47.15.47.14.49.14.48.12.48.13.49.23.98.3 1.48.09.49.08.5.08.49.08.5.07.49.06.51.08.5.05.5.06.51.05.49.05.5.07.64.1 1.29.06.64.04.64.1 1.28.07 1.29.03.65.07 1.93.03 1.28v1.28l-.04 1.93-.02.64-.04.63-.08 1.28-.05.65-.06.63-.07.64-.08.63-.08.64-.08.63-.1.64-.23 1.26-.13.63-.14.63-.3 1.25-.16.63-.18.62-.19.63-.4 1.26-.23.63-.1.3-.11.31-.12.32-.12.31-.12.3-.12.32-.12.31-.14.3-.13.32-.12.3-.28.61-.14.31-.28.6-.15.31-.15.29-.15.3-.15.3-.3.58-.16.3-.5.87-.16.28-.18.28-.16.28-.18.29-.35.55-.19.28-.17.27-.19.27-.28.39-.29.39-.3.37-.29.36-.63.71-.65.65-.33.3-.35.31-.34.29-.35.28-.73.53-.38.25-.38.24-.38.23-.39.23-.39.2-.4.2-.4.19-.42.19-.83.32-.43.16-.42.13-.44.13-.43.13-.45.11-.44.1-.91.18-.47.07-.46.06-.47.05-.48.04-.46.04-.48.02-.49.03h-.48l-1.23.01h-1.23l-1.24.02h-2.46l-1.24.01h-3.7l-1.23.01h-7.4l-1.23.01H89.25l-1.23.02h-6.18l-1.23.01h-2.62l-.07.01h-.17l-.09.01h-.08l-.27.04h-.09l-.17.03-.1.01-.09.02-.27.04-.08.03-.09.01-.08.02-.08.03-.08.01-.3.1-.13.05-.05.03-.06.02-.05.04-.05.03-.04.02-.04.04-.04.02-.05.08-.01.03-.01.03-.03.1-.02.12-.03.1-.02.11-.01.11-.02.1-.02.12-.04.34-.01.1v.11l-.01.11v.12l-.02.11v.57l.02.11v.23l.02.22v.12l.06.56.03.12.01.11.01.1.03.11.01.12.03.11.02.1.03.11.01.12.02.05.05.05.03.04.03.02.03.03.05.02.04.03.05.02.05.01.05.03.13.05.06.01.13.05.07.02.07.02.15.03.07.02.15.03.09.01.23.04.09.01.07.01h.08l.07.01h.08l.07.02h.08l.07.01h.27l.77.01h1.53l.77.01h2.3l.77.02h3.84l.76.01h8.45l.77.01h11.43l.2.01h.38l.33.03h.15l.14.03.14.01.12.02.23.05.1.04.18.08.07.05.06.05.13.12.05.08.05.09.04.07.07.2.05.23.02.14.02.12.02.16.01.16v.16l.01.18v.19l.01.19v2.07l-.01.29v.87l-.01.29v.59l-.01.29v.58l-.02.29v.58l-.01.29v.88l-.01.29v1.73l.01.29v.58l.01.29v.29l.02.3.01.29v.29l.04.87.02.29.03.9v.46l-.03.44-.02.43-.04.42-.05.43-.07.4-.07.42-.09.39-.09.4-.22.76-.14.37-.14.37-.15.35-.17.35-.17.34-.19.34-.19.33-.2.32-.23.31-.22.3-.24.3-.24.29-.27.29-.26.28-.28.28-.29.25-.29.26-.62.48-.33.24-.33.23-.7.42-.37.21-.36.18-.39.19-.39.18-.36.16-.35.15-.35.14-.35.15-.37.14-.35.14-.73.28-.36.12-.36.13-.36.14-.38.11-.73.25-.36.12-.38.11-.37.11-.37.12-.37.11-.38.1-.37.11-.37.1-1.89.51-.37.08-.38.1-3.02.71-.38.08-.75.17-.29.06-.29.05-.29.07-.3.05-.58.1-.31.05-.28.05-.31.04-.29.03-.6.08-.29.04-.3.04-.3.02-.29.03-.3.03-.61.05-.29.03-1.51.13-.29.01-1.21.1-.3.01-.3.03-.29.02-1.21.1-.29.03-.3.03-.3.03h-2.52l-.29-.03-.27-.03-.58-.05-.29-.04-.28-.03-.58-.05-.29-.03-.27-.03-.29-.02-.58-.07-.28-.02-.87-.08-.27-.04-.58-.05-.28-.03-.58-.05-.29-.04-.27-.03-.29-.02-.29-.04-.29-.03-.28-.03-.29-.03-.29-.04-.28-.03-.28-.03-.29-.04-.28-.03-.29-.04-.29-.03-.28-.04-.29-.03-.27-.04-.49-.08-.49-.06-.99-.15-.47-.09-.49-.07-.96-.18-.49-.1-.96-.2-.46-.12-.96-.22-.93-.25-.93-.28-.47-.15-.45-.15-.47-.15-.45-.18-.45-.16-.46-.18-.44-.19-.45-.19-.44-.2-.88-.43-.86-.45-.42-.24-.43-.25-.42-.25-.42-.27-.42-.27-.4-.28-.42-.3-.4-.3-.39-.3-.3-.24-.29-.26-.28-.23-.28-.26-.26-.25-.25-.25-.51-.53-.22-.26-.24-.28-.21-.26-.22-.28-.21-.29-.2-.28-.19-.29-.19-.3-.18-.29-.32-.6-.16-.32-.15-.3-.13-.31-.14-.33-.12-.31-.12-.33-.1-.34-.1-.33-.1-.34-.09-.35-.08-.34-.07-.35-.07-.36-.1-.72-.03-.37-.08-1.13v-1.59l.01-.82v-.8l.01-.82v-2.44l.02-.82v-11.4l-.02-.8v-4.9l-.01-.8v-8.16l.01-.9.06-.91.06-.88.1-.86.12-.84.16-.83.18-.81.21-.78.23-.76.26-.76.29-.72.31-.71.33-.68.36-.67.39-.64.41-.63.44-.59.45-.58.48-.57.5-.53.53-.5.55-.49.58-.46.59-.45.62-.41.64-.39.66-.37.67-.34.71-.32.73-.29.74-.27.76-.24.79-.21.79-.18.83-.16.85-.12.85-.12.88-.07.9-.05.91-.02h.9l.9-.01h1.8l.9-.01h4.5l.89-.01h6.31l.89.01h7.2l.91.01h10.78l1.03-.01 1.01-.04.99-.07.96-.12.94-.14.92-.16.89-.19.89-.23.85-.25.82-.29.8-.3.78-.34.76-.36.74-.41.71-.41.68-.45.66-.48.63-.51.61-.52.59-.56.55-.58.53-.6.5-.64.48-.66.45-.68.42-.7.4-.73.37-.77.34-.78.31-.8.28-.82.26-.86.23-.87.19-.9.17-.92.13-.94.11-.96.08-.99.05-1.01.02-1.03v-4.17l.02-.38v-6.05l-.02-.39v-1.51l-.01-.38v-.37l-.01-.38v-.76l-.03-.75v-.26l.02-.12v-.12l.01-.12.01-.1.01-.11.03-.2.07-.27.04-.08.03-.08.07-.15.05-.08.04-.06.05-.06.17-.17.06-.05.07-.03.07-.05.07-.04.08-.03.07-.04.27-.07.1-.03.2-.02.23-.03h.11l.12-.01h.13l.13.01h.21zm-26.81 88.26l-1.46 1.14-1.15 1.46-.75 1.68-.28 1.84.24 1.8.7 1.63 1.1 1.39 1.41 1.09 1.64.71 1.83.26 1.91-.22 1.7-.66 1.4-1.06 1.07-1.39.68-1.69.24-1.91-.24-1.83-.7-1.64-1.05-1.4-1.37-1.11-1.64-.73-1.81-.3-1.8.23-1.67.71z" id="b"/></defs><use xlink:href="#a" fill="#376f9e"/><use xlink:href="#a" fill-opacity="0" stroke="#000" stroke-opacity="0"/><g><use xlink:href="#b" fill="#ffd343"/><use xlink:href="#b" fill-opacity="0" stroke="#000" stroke-opacity="0"/></g></svg>